<svg width="71" height="68" viewBox="0 0 71 68" fill="none" xmlns="http://www.w3.org/2000/svg">
<g filter="url(#filter0_f)">
<path d="M24 53.3346C24 59.0422 19.5228 63.6691 14 63.6691C8.47715 63.6691 4 59.0422 4 53.3346C4 47.6269 8.47715 43 14 43C19.5228 43 24 47.6269 24 53.3346Z" fill="#6CFCE0"/>
</g>
<g filter="url(#filter1_f)">
<path d="M66.5 14.1709C66.5 19.5994 62.0228 24 56.5 24C50.9772 24 46.5 19.5994 46.5 14.1709C46.5 8.74248 50.9772 4.34186 56.5 4.34186C62.0228 4.34186 66.5 8.74248 66.5 14.1709Z" fill="#FCFF5C"/>
</g>
<g clip-path="url(#clip0)">
<path d="M48.3305 16.0826C48.0969 15.8493 47.7396 15.7498 47.2105 15.7738C45.8534 15.8356 44.4963 15.9111 43.1392 15.9831C42.4246 16.0209 41.7134 16.0586 40.9987 16.0963C40.4009 16.1272 40.023 16.3639 39.8443 16.8168C39.6485 17.3142 39.7756 17.7876 40.212 18.1787C40.4662 18.4086 40.7204 18.6453 40.9781 18.882L41.1911 19.0776L41.1808 19.0879C41.1155 19.1633 41.0674 19.2182 41.0159 19.2697L39.2637 21.0193C38.4185 21.8633 37.5768 22.7038 36.735 23.5477C36.0479 24.2373 36.0513 24.8033 36.7488 25.4997L37.484 26.2373C37.9581 26.7142 38.4288 27.1876 38.9064 27.6611C39.2362 27.987 39.5557 28.1516 39.8718 28.1516C40.1879 28.1516 40.504 27.9904 40.8304 27.6645C41.3664 27.1293 41.9023 26.5941 42.4383 26.0555C42.8197 25.6713 43.201 25.2905 43.5824 24.9062C43.9981 24.4911 44.4138 24.0795 44.857 23.6438L45.3208 23.1841L45.527 23.407C45.7675 23.6678 45.9908 23.9148 46.2141 24.1618C46.6058 24.5975 47.0765 24.7313 47.5781 24.5426C48.0351 24.3711 48.2824 23.9868 48.3133 23.3968L48.4267 21.2835C48.4989 19.9215 48.5745 18.5595 48.6397 17.1941C48.6604 16.6761 48.5642 16.3193 48.3305 16.0826ZM39.9199 26.203L38.1402 24.4946L42.0363 20.6317L42.215 20.4567C42.3833 20.292 42.5517 20.1273 42.7132 19.9524C43.1873 19.4309 43.1838 18.8168 42.7028 18.3091C42.5173 18.1101 42.3146 17.9283 42.1222 17.7499C42.1119 17.7396 42.1016 17.7293 42.0913 17.719L46.9425 17.472L46.6814 22.419C46.6711 22.4087 46.6642 22.3984 46.6573 22.3881C46.5165 22.1926 46.3722 21.9868 46.197 21.8084C45.8843 21.4893 45.5854 21.3349 45.2831 21.3315C45.2796 21.3315 45.2796 21.3315 45.2762 21.3315C44.9738 21.3315 44.6749 21.4825 44.3623 21.7912C43.3831 22.7587 42.4074 23.7295 41.4316 24.7038L39.9989 26.131C39.9715 26.155 39.9474 26.179 39.9199 26.203Z" fill="black"/>
<path d="M42.4301 8C34.7066 8 28.4434 14.2541 28.4434 21.9662C28.4434 29.6783 34.7066 35.9324 42.4301 35.9324C50.1536 35.9324 56.4169 29.6783 56.4169 21.9662C56.4169 14.2541 50.157 8 42.4301 8ZM42.3786 34.193C35.6446 34.193 30.1887 28.7417 30.1887 22.0211C30.1887 15.297 35.648 9.84912 42.3786 9.84912C49.1126 9.84912 54.5684 15.3004 54.5684 22.0211C54.5684 28.7417 49.1091 34.193 42.3786 34.193Z" fill="black"/>
<path d="M61.361 42.3648C60.4058 41.0852 58.8666 40.6975 57.3481 41.3562C54.8675 42.43 52.3972 43.521 49.9235 44.6085C48.7657 45.1162 47.6113 45.6274 46.4534 46.1351C46.0721 46.3032 45.6907 46.4645 45.2853 46.636L44.9005 46.8007C44.9005 46.7869 44.8971 46.7732 44.8971 46.7595C44.8833 46.6085 44.8765 46.4885 44.8833 46.3753C45.0379 44.1659 43.1208 41.9806 40.7742 41.6958L39.7092 41.5655C37.981 41.3528 36.1944 41.1332 34.4319 40.9788C32.1334 40.7764 30.3228 40.2001 28.739 39.1675C27.1414 38.128 25.2929 37.4384 23.2487 37.1228C22.7024 37.037 22.1458 36.9787 21.6064 36.9238C21.4037 36.9032 21.201 36.8826 21.0018 36.8586C20.7406 34.934 19.9882 34.3097 17.9783 34.3097C17.7756 34.3097 17.5729 34.3131 17.3668 34.3165C16.9304 34.3234 16.4804 34.3337 16.044 34.3028C14.5632 34.193 13.5738 34.7351 13.0137 35.9598L13 35.9941V54.2452L13.0137 54.3104C13.4776 55.4253 14.1853 55.9777 15.1748 56.0085C16.3258 56.0428 17.5351 56.0428 18.7685 56.0085C19.8233 55.9811 20.6616 55.2675 20.9021 54.1971C20.9296 54.0702 20.9571 53.9398 20.988 53.7992L20.9949 53.7752C21.4862 53.957 21.9775 54.132 22.4654 54.3069C23.7125 54.7563 24.8944 55.1783 26.0694 55.6758C28.1824 56.5643 30.3056 57.0034 32.5423 57.0034C32.7519 57.0034 32.9649 57 33.1744 56.9931C35.4386 56.9108 37.7474 56.9314 39.984 56.9554C40.7124 56.9622 41.4373 56.9691 42.1657 56.9725C42.1794 56.9725 42.1966 56.9725 42.2103 56.9725C43.9763 56.9725 45.5876 56.4957 47.1371 55.5145C48.9615 54.3584 50.7893 53.2057 52.6137 52.053C55.2351 50.396 57.8565 48.739 60.4745 47.0785C60.7735 46.8899 61.0174 46.684 61.2064 46.4645C62.2027 45.3015 62.268 43.5793 61.361 42.3648ZM20.9674 39.2258V38.7215C21.0842 38.7249 21.1976 38.7283 21.311 38.7318C21.6717 38.7421 22.0153 38.7523 22.352 38.7969C24.4924 39.0783 26.3958 39.7541 28.0106 40.8142C29.701 41.9223 31.673 42.5398 34.2155 42.7559C35.2737 42.8451 36.349 42.9789 37.3866 43.1093C38.3417 43.2293 39.3312 43.3494 40.3104 43.4386C41.7637 43.5724 43.2342 44.8349 43.0693 46.6428C43.0555 46.8109 43.059 46.9722 43.0624 47.1609C43.0624 47.202 43.0624 47.2466 43.0658 47.2912H38.0978C37.311 47.2912 36.5208 47.2878 35.734 47.2981C35.1431 47.305 34.7755 47.6515 34.7755 48.2072C34.7755 48.4988 34.8717 48.7218 35.0572 48.8762C35.2221 49.0134 35.4558 49.082 35.7444 49.082C35.7444 49.082 35.7444 49.082 35.7478 49.082H38.3143C40.1764 49.082 42.0351 49.082 43.8973 49.0717C44.2031 49.0717 44.5123 48.9482 44.7184 48.859C46.8485 47.9225 48.9787 46.9859 51.1088 46.0493C53.3283 45.0716 55.5512 44.0939 57.7741 43.1196C58.3788 42.8554 59.0212 42.6702 59.6191 43.1264C60.0073 43.4215 60.2203 43.864 60.1997 44.3374C60.1791 44.8486 59.8973 45.3118 59.4335 45.6068C56.7674 47.2981 54.1013 48.9825 51.4318 50.6704L47.6456 53.065C47.1303 53.3909 46.6115 53.7169 46.0961 54.0428C44.9177 54.7906 43.5949 55.1714 42.1588 55.1714L39.0736 55.168C36.5174 55.1646 33.8753 55.1612 31.2779 55.1783C29.9483 55.1817 28.7699 54.746 27.5227 54.2795L27.241 54.1766C26.6123 53.9433 25.9835 53.7066 25.3548 53.4733C24.0149 52.9724 22.6337 52.4544 21.2629 51.9638C20.988 51.8643 20.9743 51.7511 20.9743 51.4355C20.9777 49.6001 20.9777 47.7681 20.9743 45.9327H20.9949V39.3973L20.9674 39.2258ZM19.174 43.9944C19.1396 44.1179 19.1499 44.2551 19.1602 44.3855C19.1637 44.4404 19.1671 44.4953 19.1671 44.5467V48.0426C19.1671 49.7922 19.1671 51.5384 19.1671 53.288C19.1671 54.132 19.0812 54.2177 18.2532 54.2212H17.889C17.0988 54.2246 16.3086 54.2246 15.5184 54.2177C14.9206 54.2109 14.7934 54.0908 14.7934 53.535C14.79 50.5641 14.79 47.5931 14.79 44.6222C14.79 42.008 14.79 39.3939 14.7866 36.7797C14.7866 36.32 14.9824 36.1142 15.4222 36.1107C15.941 36.1039 16.4666 36.1039 16.9957 36.1039C17.5042 36.1039 18.0127 36.1073 18.5212 36.1107C18.9713 36.1142 19.1705 36.3406 19.1671 36.8449C19.1637 38.1211 19.1637 39.3939 19.1705 40.6701C19.1705 40.725 19.174 40.773 19.1808 40.8039L19.174 43.9944Z" fill="black"/>
</g>
<defs>
<filter id="filter0_f" x="0" y="39" width="28" height="28.6691" filterUnits="userSpaceOnUse" color-interpolation-filters="sRGB">
<feFlood flood-opacity="0" result="BackgroundImageFix"/>
<feBlend mode="normal" in="SourceGraphic" in2="BackgroundImageFix" result="shape"/>
<feGaussianBlur stdDeviation="2" result="effect1_foregroundBlur"/>
</filter>
<filter id="filter1_f" x="42.5" y="0.341858" width="28" height="27.6581" filterUnits="userSpaceOnUse" color-interpolation-filters="sRGB">
<feFlood flood-opacity="0" result="BackgroundImageFix"/>
<feBlend mode="normal" in="SourceGraphic" in2="BackgroundImageFix" result="shape"/>
<feGaussianBlur stdDeviation="2" result="effect1_foregroundBlur"/>
</filter>
<clipPath id="clip0">
<rect width="49" height="49" fill="white" transform="translate(13 8)"/>
</clipPath>
</defs>
</svg>
