<svg width="529" height="246" viewBox="0 0 529 246" fill="none" xmlns="http://www.w3.org/2000/svg">
<g filter="url(#filter0_d)">
<rect x="54" y="54" width="421" height="123" rx="11" fill="white"/>
</g>
<path d="M88.8239 78.9091C88.8239 75.6875 86.9347 73.679 84.3295 73.679C81.7244 73.679 79.8352 75.6875 79.8352 78.9091C79.8352 82.1307 81.7244 84.1392 84.3295 84.1392C84.9957 84.1392 85.6122 84.0099 86.1641 83.7614L87.054 84.9545H88.4062L87.0788 83.1896C88.1626 82.2997 88.8239 80.8182 88.8239 78.9091ZM83.9318 80.8182L85.4432 82.7969C85.0952 82.9212 84.7223 82.9858 84.3295 82.9858C82.4801 82.9858 81.0284 81.554 81.0284 78.9091C81.0284 76.2642 82.4801 74.8324 84.3295 74.8324C86.179 74.8324 87.6307 76.2642 87.6307 78.9091C87.6307 80.4453 87.1435 81.5689 86.3679 82.245L85.2841 80.8182H83.9318ZM95.8304 80.8778C95.8304 82.3097 94.7367 82.9659 93.8617 82.9659C92.8872 82.9659 92.1912 82.25 92.1912 81.1364V76.3636H91.0179V81.2159C91.0179 83.1648 92.052 84.0994 93.4838 84.0994C94.6372 84.0994 95.3929 83.483 95.7509 82.7074H95.8304V84H97.0037V76.3636H95.8304V80.8778ZM99.4327 84H100.606V76.3636H99.4327V84ZM100.029 75.0909C100.487 75.0909 100.865 74.733 100.865 74.2955C100.865 73.858 100.487 73.5 100.029 73.5C99.5719 73.5 99.1941 73.858 99.1941 74.2955C99.1941 74.733 99.5719 75.0909 100.029 75.0909ZM106.137 84.1591C107.828 84.1591 108.941 83.125 109.14 81.7727H107.967C107.748 82.608 107.052 83.1051 106.137 83.1051C104.745 83.1051 103.85 81.9517 103.85 80.1818C103.85 78.4517 104.765 77.3182 106.137 77.3182C107.171 77.3182 107.788 77.9545 107.967 78.6506H109.14C108.941 77.2188 107.728 76.2642 106.117 76.2642C104.049 76.2642 102.677 77.8949 102.677 80.2216C102.677 82.5085 103.99 84.1591 106.137 84.1591ZM111.135 84H112.309V81.1413L113.129 80.3807L115.988 84H117.479L114.014 79.625L117.24 76.3636H115.789L112.448 79.7642H112.309V73.8182H111.135V84ZM123.248 84H124.421V79.1676C124.421 78.1335 125.237 77.3778 126.35 77.3778C126.663 77.3778 126.987 77.4375 127.066 77.4574V76.2642C126.932 76.2543 126.624 76.2443 126.45 76.2443C125.535 76.2443 124.739 76.7614 124.461 77.517H124.382V76.3636H123.248V84ZM131.706 84.1591C133.257 84.1591 134.391 83.3835 134.749 82.2301L133.615 81.9119C133.317 82.7074 132.626 83.1051 131.706 83.1051C130.329 83.1051 129.38 82.2152 129.325 80.5795H134.868V80.0824C134.868 77.2386 133.178 76.2642 131.587 76.2642C129.519 76.2642 128.147 77.8949 128.147 80.2415C128.147 82.5881 129.499 84.1591 131.706 84.1591ZM129.325 79.5653C129.404 78.3771 130.245 77.3182 131.587 77.3182C132.86 77.3182 133.675 78.2727 133.675 79.5653H129.325ZM136.933 86.8636H138.106V82.8267H138.206C138.464 83.2443 138.961 84.1591 140.433 84.1591C142.342 84.1591 143.674 82.6278 143.674 80.2017C143.674 77.7955 142.342 76.2642 140.413 76.2642C138.922 76.2642 138.464 77.179 138.206 77.5767H138.067V76.3636H136.933V86.8636ZM138.086 80.1818C138.086 78.4716 138.842 77.3182 140.274 77.3182C141.765 77.3182 142.501 78.571 142.501 80.1818C142.501 81.8125 141.746 83.1051 140.274 83.1051C138.862 83.1051 138.086 81.9119 138.086 80.1818ZM146.918 73.8182H145.744V84H146.918V73.8182ZM149.347 84H150.52V76.3636H149.347V84ZM149.943 75.0909C150.401 75.0909 150.778 74.733 150.778 74.2955C150.778 73.858 150.401 73.5 149.943 73.5C149.486 73.5 149.108 73.858 149.108 74.2955C149.108 74.733 149.486 75.0909 149.943 75.0909ZM156.15 84.1591C157.702 84.1591 158.835 83.3835 159.193 82.2301L158.06 81.9119C157.761 82.7074 157.07 83.1051 156.15 83.1051C154.773 83.1051 153.824 82.2152 153.769 80.5795H159.312V80.0824C159.312 77.2386 157.622 76.2642 156.031 76.2642C153.963 76.2642 152.591 77.8949 152.591 80.2415C152.591 82.5881 153.943 84.1591 156.15 84.1591ZM153.769 79.5653C153.849 78.3771 154.689 77.3182 156.031 77.3182C157.304 77.3182 158.119 78.2727 158.119 79.5653H153.769ZM166.786 78.0739C166.418 76.9901 165.593 76.2642 164.082 76.2642C162.471 76.2642 161.278 77.179 161.278 78.4716C161.278 79.5256 161.904 80.2315 163.306 80.5597L164.579 80.858C165.35 81.0369 165.712 81.4048 165.712 81.9318C165.712 82.5881 165.016 83.125 163.923 83.125C162.963 83.125 162.362 82.7124 162.153 81.892L161.039 82.1705C161.313 83.468 162.381 84.1591 163.943 84.1591C165.717 84.1591 166.926 83.1896 166.926 81.8722C166.926 80.8082 166.259 80.1371 164.897 79.804L163.764 79.5256C162.859 79.3018 162.451 78.9986 162.451 78.4119C162.451 77.7557 163.147 77.2784 164.082 77.2784C165.106 77.2784 165.529 77.8452 165.732 78.3722L166.786 78.0739Z" fill="#999999"/>
<g clip-path="url(#clip0)">
<path d="M453.669 78.4806L438.812 71.6237C438.575 71.5162 438.293 71.5802 438.128 71.7837C437.963 71.9871 437.957 72.2762 438.115 72.4854L443 78.9995L438.115 85.5136C437.957 85.7227 437.963 86.013 438.127 86.2153C438.238 86.3536 438.404 86.4279 438.572 86.4279C438.653 86.4279 438.734 86.4107 438.811 86.3753L453.667 79.5183C453.871 79.4246 454 79.2223 454 78.9995C454 78.7766 453.871 78.5744 453.669 78.4806Z" fill="#BFBFBF"/>
</g>
<rect x="72" y="132" width="28" height="28" rx="14" fill="white"/>
<path d="M86.75 143.687L84.1206 146.317C83.523 146.914 83.523 147.884 84.1206 148.482C84.7182 149.08 85.6877 149.08 86.2862 148.482L89.844 144.925C91.0401 143.729 91.0401 141.79 89.844 140.593C88.6478 139.397 86.7088 139.397 85.5127 140.593L81.6461 144.461C79.8523 146.255 79.8523 149.163 81.6461 150.958C83.4398 152.752 86.3483 152.752 88.143 150.958L91.6998 147.4" stroke="black" stroke-opacity="0.5" stroke-miterlimit="10" stroke-linecap="round" stroke-linejoin="round"/>
<rect x="128" y="132" width="28" height="28" rx="14" fill="white"/>
<g clip-path="url(#clip1)">
<path d="M142 152.562C145.624 152.562 148.562 149.624 148.562 146C148.562 142.376 145.624 139.438 142 139.438C138.376 139.438 135.438 142.376 135.438 146C135.438 149.624 138.376 152.562 142 152.562Z" stroke="black" stroke-opacity="0.5" stroke-linecap="round" stroke-linejoin="round"/>
<path d="M139.375 145.125C139.858 145.125 140.25 144.733 140.25 144.25C140.25 143.767 139.858 143.375 139.375 143.375C138.892 143.375 138.5 143.767 138.5 144.25C138.5 144.733 138.892 145.125 139.375 145.125Z" fill="black" fill-opacity="0.5"/>
<path d="M144.625 145.125C145.108 145.125 145.5 144.733 145.5 144.25C145.5 143.767 145.108 143.375 144.625 143.375C144.142 143.375 143.75 143.767 143.75 144.25C143.75 144.733 144.142 145.125 144.625 145.125Z" fill="black" fill-opacity="0.5"/>
<path d="M144.625 147.575C144.353 148.028 143.968 148.403 143.508 148.663C143.048 148.923 142.528 149.06 142 149.06C141.472 149.06 140.952 148.923 140.492 148.663C140.032 148.403 139.647 148.028 139.375 147.575" stroke="black" stroke-opacity="0.5" stroke-linecap="round" stroke-linejoin="round"/>
</g>
<rect x="264" y="132" width="28" height="28" rx="14" fill="white"/>
<g clip-path="url(#clip2)">
<path fill-rule="evenodd" clip-rule="evenodd" d="M279.322 138.937H281.938C282.214 138.937 282.438 139.161 282.438 139.437C282.438 139.714 282.214 139.937 281.938 139.937H279.722L277.297 152.062H279.312C279.589 152.062 279.812 152.286 279.812 152.562C279.812 152.839 279.589 153.062 279.312 153.062H276.698C276.691 153.063 276.685 153.063 276.678 153.062H274.062C273.786 153.062 273.562 152.839 273.562 152.562C273.562 152.286 273.786 152.062 274.062 152.062H276.278L278.703 139.937H276.688C276.411 139.937 276.188 139.714 276.188 139.437C276.188 139.161 276.411 138.937 276.688 138.937H279.302C279.309 138.937 279.315 138.937 279.322 138.937Z" fill="black" fill-opacity="0.5"/>
</g>
<rect x="292" y="132" width="28" height="28" rx="14" fill="white"/>
<g clip-path="url(#clip3)">
<path fill-rule="evenodd" clip-rule="evenodd" d="M303.812 140.812H302.562V146C302.562 146.912 302.925 147.786 303.569 148.431C304.214 149.075 305.088 149.438 306 149.438C306.912 149.438 307.786 149.075 308.431 148.431C309.075 147.786 309.438 146.912 309.438 146V140.812H308.188C307.911 140.812 307.688 140.589 307.688 140.312C307.688 140.036 307.911 139.812 308.188 139.812H309.938H311.688C311.964 139.812 312.188 140.036 312.188 140.312C312.188 140.589 311.964 140.812 311.688 140.812H310.438V146C310.438 147.177 309.97 148.306 309.138 149.138C308.306 149.97 307.177 150.438 306 150.438C304.823 150.438 303.694 149.97 302.862 149.138C302.03 148.306 301.562 147.177 301.562 146V140.812H300.312C300.036 140.812 299.812 140.589 299.812 140.312C299.812 140.036 300.036 139.812 300.312 139.812H302.062H303.812C304.089 139.812 304.312 140.036 304.312 140.312C304.312 140.589 304.089 140.812 303.812 140.812ZM299.438 152.062C299.161 152.062 298.938 152.286 298.938 152.562C298.938 152.839 299.161 153.062 299.438 153.062H312.562C312.839 153.062 313.062 152.839 313.062 152.562C313.062 152.286 312.839 152.062 312.562 152.062H299.438Z" fill="black" fill-opacity="0.5"/>
</g>
<rect x="320" y="132" width="28" height="28" rx="14" fill="white"/>
<g clip-path="url(#clip4)">
<path fill-rule="evenodd" clip-rule="evenodd" d="M327.812 139.438C327.812 139.161 328.036 138.938 328.312 138.938H334.438H340.562C340.839 138.938 341.062 139.161 341.062 139.438V141.188C341.062 141.464 340.839 141.688 340.562 141.688C340.286 141.688 340.062 141.464 340.062 141.188V139.938H334.938V145.062H340.562C340.839 145.062 341.062 145.286 341.062 145.562C341.062 145.839 340.839 146.062 340.562 146.062H334.438H328.312C328.036 146.062 327.812 145.839 327.812 145.562C327.812 145.286 328.036 145.062 328.312 145.062H333.938V139.938H328.812V141.188C328.812 141.464 328.589 141.688 328.312 141.688C328.036 141.688 327.812 141.464 327.812 141.188V139.438ZM334.438 147.688C334.714 147.688 334.938 147.911 334.938 148.188V152.062H337.062C337.339 152.062 337.562 152.286 337.562 152.562C337.562 152.839 337.339 153.062 337.062 153.062H334.438H331.812C331.536 153.062 331.312 152.839 331.312 152.562C331.312 152.286 331.536 152.062 331.812 152.062H333.938V148.188C333.938 147.911 334.161 147.688 334.438 147.688Z" fill="black" fill-opacity="0.5"/>
</g>
<rect x="100" y="132" width="28" height="28" rx="14" fill="white"/>
<g clip-path="url(#clip5)">
<path fill-rule="evenodd" clip-rule="evenodd" d="M118.309 143.422C119.733 143.422 120.888 144.576 120.888 146C120.888 147.423 119.735 148.576 118.313 148.578L116.185 148.547C115.908 148.543 115.681 148.764 115.677 149.04C115.673 149.316 115.894 149.543 116.17 149.547L118.302 149.578L118.302 149.578L118.309 149.578C120.286 149.578 121.888 147.976 121.888 146C121.888 144.024 120.286 142.422 118.309 142.422L115.847 142.422C113.87 142.422 112.269 144.024 112.269 146C112.269 146.276 112.493 146.5 112.769 146.5C113.045 146.5 113.269 146.276 113.269 146C113.269 144.576 114.423 143.422 115.847 143.422L118.309 143.422ZM115.731 146C115.731 145.724 115.507 145.5 115.231 145.5C114.955 145.5 114.731 145.724 114.731 146C114.731 147.424 113.577 148.578 112.153 148.578L109.691 148.578C108.266 148.578 107.112 147.424 107.112 146C107.112 144.577 108.265 143.424 109.687 143.422L111.815 143.453C112.092 143.457 112.319 143.236 112.323 142.96C112.327 142.684 112.106 142.457 111.83 142.453L109.698 142.422L109.698 142.422H109.691C107.714 142.422 106.112 144.024 106.112 146C106.112 147.976 107.714 149.578 109.691 149.578L112.153 149.578C114.13 149.578 115.731 147.976 115.731 146Z" fill="black" fill-opacity="0.5"/>
</g>
<rect x="348" y="132" width="28" height="28" rx="14" fill="white"/>
<g clip-path="url(#clip6)">
<path fill-rule="evenodd" clip-rule="evenodd" d="M355.938 141.625C355.938 141.176 356.301 140.812 356.75 140.812C357.199 140.812 357.562 141.176 357.562 141.625C357.562 142.074 357.199 142.438 356.75 142.438C356.301 142.438 355.938 142.074 355.938 141.625ZM356.75 139.812C355.749 139.812 354.938 140.624 354.938 141.625C354.938 142.626 355.749 143.438 356.75 143.438C357.751 143.438 358.562 142.626 358.562 141.625C358.562 140.624 357.751 139.812 356.75 139.812ZM360.688 141.562C360.411 141.562 360.188 141.786 360.188 142.062C360.188 142.339 360.411 142.562 360.688 142.562H368.562C368.839 142.562 369.062 142.339 369.062 142.062C369.062 141.786 368.839 141.562 368.562 141.562H360.688ZM360.688 145.938C360.411 145.938 360.188 146.161 360.188 146.438C360.188 146.714 360.411 146.938 360.688 146.938H368.562C368.839 146.938 369.062 146.714 369.062 146.438C369.062 146.161 368.839 145.938 368.562 145.938H360.688ZM360.188 150.812C360.188 150.536 360.411 150.312 360.688 150.312H368.562C368.839 150.312 369.062 150.536 369.062 150.812C369.062 151.089 368.839 151.312 368.562 151.312H360.688C360.411 151.312 360.188 151.089 360.188 150.812ZM356.75 145.188C356.301 145.188 355.938 145.551 355.938 146C355.938 146.449 356.301 146.812 356.75 146.812C357.199 146.812 357.562 146.449 357.562 146C357.562 145.551 357.199 145.188 356.75 145.188ZM354.938 146C354.938 144.999 355.749 144.188 356.75 144.188C357.751 144.188 358.562 144.999 358.562 146C358.562 147.001 357.751 147.812 356.75 147.812C355.749 147.812 354.938 147.001 354.938 146ZM355.938 150.375C355.938 149.926 356.301 149.562 356.75 149.562C357.199 149.562 357.562 149.926 357.562 150.375C357.562 150.824 357.199 151.188 356.75 151.188C356.301 151.188 355.938 150.824 355.938 150.375ZM356.75 148.562C355.749 148.562 354.938 149.374 354.938 150.375C354.938 151.376 355.749 152.188 356.75 152.188C357.751 152.188 358.562 151.376 358.562 150.375C358.562 149.374 357.751 148.562 356.75 148.562Z" fill="black" fill-opacity="0.5"/>
</g>
<rect x="156" y="132" width="28" height="28" rx="14" fill="white"/>
<g clip-path="url(#clip7)">
<path fill-rule="evenodd" clip-rule="evenodd" d="M164.312 139.938C164.106 139.938 163.938 140.106 163.938 140.312V148.73L166.584 146.084C166.779 145.889 167.096 145.889 167.291 146.084L169.521 148.314L172.672 144.375C172.761 144.264 172.893 144.196 173.035 144.188C173.177 144.18 173.315 144.233 173.416 144.334L176.062 146.98V140.312C176.062 140.106 175.894 139.938 175.688 139.938H164.312ZM162.938 149.937V149.938V151.688C162.938 152.447 163.553 153.062 164.312 153.062H175.688C176.447 153.062 177.062 152.447 177.062 151.688V148.188V148.187V140.312C177.062 139.553 176.447 138.938 175.688 138.938H164.312C163.553 138.938 162.938 139.553 162.938 140.312V149.937ZM176.062 151.688V148.395L173.104 145.436L169.953 149.375C169.864 149.486 169.732 149.554 169.59 149.562C169.448 149.57 169.31 149.517 169.209 149.416L166.938 147.145L163.938 150.145V151.688C163.938 151.894 164.106 152.062 164.312 152.062H175.688C175.894 152.062 176.062 151.894 176.062 151.688ZM170 142.938C170 143.662 169.412 144.25 168.688 144.25C167.963 144.25 167.375 143.662 167.375 142.938C167.375 142.213 167.963 141.625 168.688 141.625C169.412 141.625 170 142.213 170 142.938Z" fill="black" fill-opacity="0.5"/>
</g>
<rect x="210" y="140" width="1" height="13" fill="black"/>
<rect x="376" y="132" width="28" height="28" rx="14" fill="white"/>
<g clip-path="url(#clip8)">
<path fill-rule="evenodd" clip-rule="evenodd" d="M383.938 141.625C383.938 141.176 384.301 140.812 384.75 140.812C385.199 140.812 385.562 141.176 385.562 141.625C385.562 142.074 385.199 142.438 384.75 142.438C384.301 142.438 383.938 142.074 383.938 141.625ZM384.75 139.812C383.749 139.812 382.938 140.624 382.938 141.625C382.938 142.626 383.749 143.438 384.75 143.438C385.751 143.438 386.562 142.626 386.562 141.625C386.562 140.624 385.751 139.812 384.75 139.812ZM388.688 141.562C388.411 141.562 388.188 141.786 388.188 142.062C388.188 142.339 388.411 142.562 388.688 142.562H396.562C396.839 142.562 397.062 142.339 397.062 142.062C397.062 141.786 396.839 141.562 396.562 141.562H388.688ZM388.688 145.938C388.411 145.938 388.188 146.161 388.188 146.438C388.188 146.714 388.411 146.938 388.688 146.938H396.562C396.839 146.938 397.062 146.714 397.062 146.438C397.062 146.161 396.839 145.938 396.562 145.938H388.688ZM388.188 150.812C388.188 150.536 388.411 150.312 388.688 150.312H396.562C396.839 150.312 397.062 150.536 397.062 150.812C397.062 151.089 396.839 151.312 396.562 151.312H388.688C388.411 151.312 388.188 151.089 388.188 150.812ZM384.75 145.188C384.301 145.188 383.938 145.551 383.938 146C383.938 146.449 384.301 146.812 384.75 146.812C385.199 146.812 385.562 146.449 385.562 146C385.562 145.551 385.199 145.188 384.75 145.188ZM382.938 146C382.938 144.999 383.749 144.188 384.75 144.188C385.751 144.188 386.562 144.999 386.562 146C386.562 147.001 385.751 147.812 384.75 147.812C383.749 147.812 382.938 147.001 382.938 146ZM383.938 150.375C383.938 149.926 384.301 149.562 384.75 149.562C385.199 149.562 385.562 149.926 385.562 150.375C385.562 150.824 385.199 151.188 384.75 151.188C384.301 151.188 383.938 150.824 383.938 150.375ZM384.75 148.562C383.749 148.562 382.938 149.374 382.938 150.375C382.938 151.376 383.749 152.188 384.75 152.188C385.751 152.188 386.562 151.376 386.562 150.375C386.562 149.374 385.751 148.562 384.75 148.562Z" fill="black" fill-opacity="0.5"/>
</g>
<rect x="404" y="132" width="28" height="28" rx="14" fill="white"/>
<path fill-rule="evenodd" clip-rule="evenodd" d="M244.688 140.312C244.688 140.036 244.911 139.812 245.188 139.812H246.938H250.438C251.266 139.812 252.061 140.142 252.647 140.728C253.233 141.314 253.562 142.109 253.562 142.938C253.562 143.766 253.233 144.561 252.647 145.147L252.623 145.171C253.241 145.327 253.811 145.648 254.269 146.106C254.937 146.774 255.312 147.68 255.312 148.625C255.312 149.57 254.937 150.476 254.269 151.144C253.601 151.812 252.695 152.188 251.75 152.188H246.938H245.188C244.911 152.188 244.688 151.964 244.688 151.688C244.688 151.411 244.911 151.188 245.188 151.188H246.438V145.562V140.812H245.188C244.911 140.812 244.688 140.589 244.688 140.312ZM247.438 140.812V145.062H250.438C251.001 145.062 251.542 144.839 251.94 144.44C252.339 144.042 252.562 143.501 252.562 142.938C252.562 142.374 252.339 141.833 251.94 141.435C251.542 141.036 251.001 140.812 250.438 140.812H247.438ZM247.438 146.062V151.188H251.75C252.43 151.188 253.081 150.918 253.562 150.437C254.043 149.956 254.312 149.305 254.312 148.625C254.312 147.945 254.043 147.294 253.562 146.813C253.081 146.332 252.43 146.062 251.75 146.062H250.438H247.438Z" fill="#808080"/>
<path d="M426 146H423.419C423.419 144.503 422.813 143.148 421.832 142.168L423.657 140.343C425.104 141.791 426 143.791 426 146Z" fill="#F6BB42"/>
<path d="M423.419 146H426C426 148.206 425.107 150.206 423.657 151.654L421.832 149.832C422.813 148.852 423.419 147.497 423.419 146Z" fill="#8CC152"/>
<path d="M423.657 151.654V151.657C422.209 153.104 420.212 154 418 154V151.419C419.497 151.419 420.852 150.812 421.832 149.832L423.657 151.654Z" fill="#37BC9B"/>
<path d="M423.657 140.343L421.832 142.167C420.852 141.187 419.497 140.581 418 140.581V138C420.212 138 422.209 138.895 423.657 140.343Z" fill="#E9573F"/>
<path d="M423.419 146H420.841H420.839C420.839 145.215 420.521 144.506 420.008 143.992L421.832 142.168C422.813 143.148 423.419 144.503 423.419 146Z" fill="#FFCE54"/>
<path d="M420.008 148.008L421.832 149.832C420.852 150.813 419.497 151.419 418 151.419V148.839C418.785 148.839 419.494 148.521 420.008 148.008Z" fill="#48CFAD"/>
<path d="M418.001 151.419V154C415.791 154 413.791 153.104 412.344 151.657L414.168 149.832C415.149 150.812 416.506 151.419 418.001 151.419Z" fill="#4A89DC"/>
<path d="M418 148.839V151.419C416.506 151.419 415.149 150.812 414.168 149.832L415.992 148.008C416.506 148.521 417.218 148.839 418 148.839Z" fill="#5D9CEC"/>
<path d="M418 140.581V143.161C417.218 143.161 416.508 143.479 415.995 143.992H415.992L414.168 142.168C415.148 141.187 416.506 140.581 418 140.581Z" fill="#ED5565"/>
<path d="M414.168 149.832L412.343 151.657C410.895 150.209 410 148.209 410 146H412.581C412.581 147.497 413.187 148.852 414.168 149.832Z" fill="#967ADC"/>
<path d="M420.841 146H423.419C423.419 147.497 422.813 148.852 421.832 149.832L420.008 148.008C420.521 147.494 420.839 146.782 420.839 146H420.841Z" fill="#A0D468"/>
<path d="M414.167 142.168L415.991 143.992C415.478 144.506 415.161 145.216 415.161 146H412.58C412.58 144.503 413.187 143.148 414.167 142.168Z" fill="#EC87C0"/>
<path d="M415.992 148.007L414.167 149.832C413.187 148.852 412.58 147.497 412.58 146H415.161C415.161 146.782 415.478 147.494 415.992 148.007Z" fill="#AC92EC"/>
<path d="M412.343 140.343L414.168 142.168C413.187 143.148 412.581 144.503 412.581 146H410C410 143.791 410.895 141.791 412.343 140.343Z" fill="#D770AD"/>
<path d="M421.832 142.168L420.008 143.992C419.494 143.479 418.785 143.161 418 143.161V140.581C419.497 140.581 420.852 141.187 421.832 142.168Z" fill="#FC6E51"/>
<path d="M418.001 138V140.581C416.506 140.581 415.149 141.187 414.168 142.167L412.344 140.343C413.791 138.895 415.791 138 418.001 138Z" fill="#DA4453"/>
<circle cx="127.986" cy="15.6678" r="15.6678" fill="#FFC9A9"/>
<circle cx="185.435" cy="15.6678" r="15.6678" fill="#9EECEF"/>
<circle cx="300.332" cy="15.6678" r="15.6678" fill="#FCDCDF"/>
<circle cx="242.885" cy="15.6678" r="15.6678" fill="#E0BBF6"/>
<circle cx="69.6678" cy="15.6678" r="15.6678" fill="#FFEEA5"/>
<path d="M70.068 8.40775C69.8862 8.32105 69.6721 8.34403 69.5154 8.47042L64.4349 12.5346H62.0074C61.4319 12.5346 60.9629 13.0036 60.9629 13.5792V17.7572C60.9629 18.3338 61.4319 18.8017 62.0074 18.8017H64.4349L69.5144 22.866C69.6094 22.9412 69.7254 22.9798 69.8413 22.9798C69.9186 22.9798 69.9959 22.9621 70.068 22.9276C70.2487 22.8409 70.3636 22.6581 70.3636 22.4576V8.87883C70.3636 8.67828 70.2487 8.49549 70.068 8.40775Z" fill="#D1B434"/>
<path d="M73.0083 11.9745C72.8025 11.7719 72.4725 11.775 72.2698 11.9787C72.0672 12.1845 72.0693 12.5145 72.274 12.7182C73.0637 13.4974 73.4982 14.5451 73.4982 15.6679C73.4982 16.7908 73.0637 17.8384 72.274 18.6176C72.0693 18.8192 72.0672 19.1504 72.2698 19.3561C72.3722 19.4595 72.5069 19.5107 72.6406 19.5107C72.7733 19.5107 72.9059 19.4606 73.0083 19.3593C73.9985 18.3847 74.5427 17.0728 74.5427 15.6679C74.5427 14.2631 73.9985 12.9511 73.0083 11.9745Z" fill="#D1B434"/>
<path d="M74.4821 10.5029C74.2764 10.2992 73.9463 10.3013 73.7426 10.506C73.54 10.7108 73.5421 11.0419 73.7457 11.2445C74.9334 12.4217 75.5872 13.9926 75.5872 15.6681C75.5872 17.3435 74.9334 18.9134 73.7457 20.0905C73.5421 20.2942 73.54 20.6253 73.7426 20.8301C73.846 20.9324 73.9797 20.9836 74.1134 20.9836C74.2461 20.9836 74.3798 20.9335 74.4821 20.8322C75.8692 19.4586 76.6317 17.6244 76.6317 15.6681C76.6317 13.7117 75.8692 11.8775 74.4821 10.5029Z" fill="#D1B434"/>
<path d="M127.987 25.2427C122.699 25.2427 118.412 20.9559 118.412 15.6679C118.412 10.38 122.699 6.09321 127.987 6.09321C133.275 6.09321 137.562 10.38 137.562 15.6679C137.556 20.9536 133.272 25.237 127.987 25.2427ZM132.019 15.3629C131.953 15.2299 131.845 15.1221 131.712 15.0558V15.0524L126.241 12.3168C125.903 12.1479 125.492 12.285 125.323 12.6228C125.275 12.7189 125.251 12.8249 125.251 12.9323V18.4036C125.251 18.7813 125.557 19.0876 125.935 19.0878C126.041 19.0878 126.146 19.0632 126.241 19.0157L131.712 16.28C132.05 16.1116 132.188 15.7009 132.019 15.3629Z" fill="#D98859"/>
<path d="M188.261 12.6792C187.638 12.6792 187.131 12.172 187.131 11.5486V7.83398H181.349C180.369 7.83398 179.572 8.63095 179.572 9.61055V22.5956C179.572 23.5752 180.369 24.3722 181.349 24.3722H190.393C191.373 24.3722 192.17 23.5752 192.17 22.5956V12.6792H188.261ZM182.221 19.4624H184.57C184.837 19.4624 185.054 19.6793 185.054 19.9469C185.054 20.2145 184.837 20.4314 184.57 20.4314H182.221C181.953 20.4314 181.736 20.2145 181.736 19.9469C181.736 19.6793 181.953 19.4624 182.221 19.4624ZM181.736 17.3628C181.736 17.0953 181.953 16.8783 182.221 16.8783H189.327C189.595 16.8783 189.812 17.0953 189.812 17.3628C189.812 17.6304 189.595 17.8474 189.327 17.8474H182.221C181.953 17.8474 181.736 17.6304 181.736 17.3628ZM189.327 14.2942C189.595 14.2942 189.812 14.5112 189.812 14.7787C189.812 15.0463 189.595 15.2633 189.327 15.2633H182.221C181.953 15.2633 181.736 15.0463 181.736 14.7787C181.736 14.5112 181.953 14.2942 182.221 14.2942H189.327Z" fill="#49ADB0"/>
<path d="M188.1 11.5484C188.1 11.6374 188.172 11.7099 188.261 11.7099H191.954C191.865 11.5462 191.751 11.3959 191.614 11.2663L188.499 8.31973C188.378 8.20538 188.244 8.10999 188.1 8.03467V11.5484H188.1Z" fill="#49ADB0"/>
<path d="M236.114 8.89739C237.922 7.08898 240.327 6.09302 242.884 6.09302C245.442 6.09302 247.846 7.08898 249.655 8.89739C251.463 10.7058 252.459 13.1103 252.459 15.6678C252.459 18.2252 251.463 20.6297 249.655 22.4381C247.846 24.2466 245.442 25.2425 242.884 25.2425C240.327 25.2425 237.922 24.2466 236.114 22.4381C234.305 20.6297 233.309 18.2252 233.309 15.6678C233.309 13.1103 234.305 10.7058 236.114 8.89739ZM246.729 13.9125C246.729 13.3774 246.294 12.942 245.758 12.942C245.223 12.942 244.788 13.3774 244.788 13.9125C244.788 14.4477 245.223 14.8831 245.758 14.8831C246.294 14.8831 246.729 14.4477 246.729 13.9125ZM239.548 18.3532C240.235 19.5416 241.514 20.2797 242.886 20.2797C244.26 20.2797 245.54 19.5394 246.227 18.3478C246.381 18.0793 246.289 17.7362 246.021 17.5817C245.752 17.4268 245.409 17.5191 245.254 17.7875C244.767 18.6327 243.86 19.1576 242.886 19.1576C241.913 19.1576 241.007 18.6342 240.519 17.7915C240.364 17.5232 240.021 17.4316 239.752 17.5868C239.484 17.7418 239.393 18.0851 239.548 18.3532ZM240.015 14.8831C240.551 14.8831 240.986 14.4477 240.986 13.9125C240.986 13.3774 240.551 12.942 240.015 12.942C239.48 12.942 239.045 13.3774 239.045 13.9125C239.045 14.4477 239.48 14.8831 240.015 14.8831Z" fill="#924EBA"/>
<path d="M306.39 9.86089C305.237 7.87225 303.191 6.65731 300.914 6.61088C300.817 6.60887 300.72 6.60887 300.622 6.61088C298.346 6.65731 296.299 7.87225 295.147 9.86089C293.969 11.8936 293.937 14.3353 295.061 16.3924L299.769 25.0104C299.771 25.0143 299.774 25.0181 299.776 25.0219C299.983 25.3819 300.354 25.5969 300.768 25.5969C301.183 25.5969 301.554 25.3819 301.761 25.0219C301.763 25.0181 301.765 25.0143 301.768 25.0104L306.476 16.3924C307.6 14.3353 307.568 11.8936 306.39 9.86089ZM300.768 15.2131C299.296 15.2131 298.098 14.0153 298.098 12.543C298.098 11.0707 299.296 9.87286 300.768 9.87286C302.241 9.87286 303.438 11.0707 303.438 12.543C303.438 14.0153 302.241 15.2131 300.768 15.2131Z" fill="#D77E86"/>
<defs>
<filter id="filter0_d" x="0" y="15" width="529" height="231" filterUnits="userSpaceOnUse" color-interpolation-filters="sRGB">
<feFlood flood-opacity="0" result="BackgroundImageFix"/>
<feColorMatrix in="SourceAlpha" type="matrix" values="0 0 0 0 0 0 0 0 0 0 0 0 0 0 0 0 0 0 127 0"/>
<feOffset dy="15"/>
<feGaussianBlur stdDeviation="27"/>
<feColorMatrix type="matrix" values="0 0 0 0 0.119927 0 0 0 0 0.158739 0 0 0 0 0.3625 0 0 0 0.12 0"/>
<feBlend mode="normal" in2="BackgroundImageFix" result="effect1_dropShadow"/>
<feBlend mode="normal" in="SourceGraphic" in2="effect1_dropShadow" result="shape"/>
</filter>
<clipPath id="clip0">
<rect width="16" height="16" fill="white" transform="translate(438 71)"/>
</clipPath>
<clipPath id="clip1">
<rect width="14" height="14" fill="white" transform="translate(135 139)"/>
</clipPath>
<clipPath id="clip2">
<rect width="14" height="14" fill="white" transform="translate(271 139)"/>
</clipPath>
<clipPath id="clip3">
<rect width="14" height="14" fill="white" transform="translate(299 139)"/>
</clipPath>
<clipPath id="clip4">
<rect width="14" height="14" fill="white" transform="translate(327 139)"/>
</clipPath>
<clipPath id="clip5">
<rect width="14" height="14" fill="white" transform="matrix(0.707112 0.707101 -0.707112 0.707101 114 136.101)"/>
</clipPath>
<clipPath id="clip6">
<rect width="14" height="14" fill="white" transform="translate(355 139)"/>
</clipPath>
<clipPath id="clip7">
<rect width="14" height="14" fill="white" transform="translate(163 139)"/>
</clipPath>
<clipPath id="clip8">
<rect width="14" height="14" fill="white" transform="translate(383 139)"/>
</clipPath>
</defs>
</svg>
