<svg width="525" height="518" viewBox="0 0 525 518" fill="none" xmlns="http://www.w3.org/2000/svg">
<circle cx="259.213" cy="263.399" r="182.59" fill="white" stroke="#E8E8E8"/>
<circle cx="261.486" cy="266.81" r="128.504" fill="#E1E7FF"/>
<circle cx="262.056" cy="267.379" r="76.7611" fill="white"/>
<path d="M285.911 249.387L266.633 238.307C265.413 237.61 264.031 237.243 262.624 237.243C261.218 237.243 259.836 237.61 258.616 238.307L239.338 249.387C238.121 250.089 237.11 251.097 236.407 252.31C235.704 253.523 235.332 254.898 235.33 256.299V278.455C235.333 279.856 235.704 281.231 236.407 282.444C237.111 283.656 238.121 284.664 239.338 285.367L258.616 296.449C259.836 297.147 261.218 297.515 262.624 297.515C264.031 297.515 265.413 297.147 266.633 296.449L285.911 285.373C287.127 284.67 288.137 283.662 288.84 282.449C289.543 281.237 289.914 279.861 289.916 278.461V256.299C289.914 254.899 289.543 253.523 288.841 252.31C288.138 251.098 287.128 250.09 285.911 249.387ZM285.884 278.455C285.883 279.151 285.698 279.834 285.349 280.437C285 281.039 284.498 281.54 283.893 281.889L264.639 292.954V270.294C264.637 269.052 264.304 267.833 263.673 266.761C263.043 265.689 262.139 264.802 261.052 264.192L241.161 252.981L241.356 252.862L260.634 241.785C261.239 241.439 261.926 241.256 262.624 241.256C263.323 241.256 264.01 241.439 264.615 241.785L283.893 252.862C284.498 253.212 285 253.713 285.349 254.316C285.698 254.919 285.883 255.603 285.884 256.299V278.455Z" fill="#3364FA"/>
<g filter="url(#filter0_d)">
<rect x="359.287" y="365.747" width="67.0949" height="67.0949" rx="15" fill="white"/>
</g>
<g filter="url(#filter1_d)">
<rect x="413.375" y="199.502" width="46.6253" height="46.6253" rx="12" fill="white"/>
</g>
<g filter="url(#filter2_d)">
<rect x="331.77" y="154.893" width="39.8021" height="39.8021" rx="10" fill="white"/>
</g>
<g filter="url(#filter3_d)">
<rect x="309.854" y="286.389" width="38.114" height="38.114" rx="10" fill="white"/>
</g>
<path d="M374.953 413.398H381.539V397.677L372.135 390.75V410.655C372.135 412.172 373.409 413.398 374.953 413.398Z" fill="#4285F4"/>
<path d="M404.148 413.398H410.735C412.309 413.398 413.553 412.146 413.553 410.628V390.75L404.148 397.677V413.398Z" fill="#34A853"/>
<path d="M404.148 385.661V397.678L413.557 390.75V387.046C413.557 383.611 409.572 381.662 406.778 383.717L404.148 385.661Z" fill="#FBBC04"/>
<path d="M381.539 397.678V385.662L392.845 394.001L404.147 385.662V397.678L392.845 405.991L381.539 397.678Z" fill="#EA4335"/>
<path d="M372.135 387.047V390.752L381.543 397.679V385.663L378.914 383.718C376.119 381.667 372.135 383.638 372.135 387.047Z" fill="#C5221F"/>
<g clip-path="url(#clip0)">
<path d="M360.998 163.279H346.939C346.635 163.279 346.343 163.395 346.127 163.601C345.912 163.807 345.791 164.086 345.791 164.377V165.625L353.715 167.97L362.146 165.625V164.377C362.146 164.086 362.025 163.807 361.81 163.601C361.595 163.395 361.303 163.279 360.998 163.279V163.279Z" fill="#0364B8"/>
<path d="M363.496 175.323C363.616 174.963 363.712 174.596 363.783 174.225C363.782 174.133 363.757 174.044 363.709 173.965C363.662 173.886 363.593 173.82 363.51 173.774L363.5 173.768L363.496 173.767L354.633 168.94C354.595 168.916 354.556 168.894 354.515 168.875C354.345 168.794 354.159 168.752 353.969 168.752C353.78 168.752 353.593 168.794 353.424 168.875C353.383 168.894 353.344 168.915 353.305 168.939L344.442 173.767L344.439 173.769L344.429 173.774C344.347 173.82 344.278 173.886 344.23 173.965C344.182 174.044 344.156 174.133 344.156 174.225C344.227 174.596 344.323 174.963 344.442 175.323L353.84 181.895L363.496 175.323Z" fill="#0A2767"/>
<path d="M357.24 165.625H351.516L349.863 167.97L351.516 170.316L357.24 175.007H362.147V170.316L357.24 165.625Z" fill="#28A8EA"/>
<path d="M345.791 165.625H351.515V170.316H345.791V165.625Z" fill="#0078D4"/>
<path d="M357.24 165.625H362.147V170.316H357.24V165.625Z" fill="#50D9FF"/>
<path d="M357.24 175.007L351.515 170.316H345.791V175.007L351.515 179.698L360.373 181.08L357.24 175.007Z" fill="#0364B8"/>
<path d="M351.516 170.316H357.24V175.007H351.516V170.316Z" fill="#0078D4"/>
<path d="M345.791 175.007H351.515V179.698H345.791V175.007Z" fill="#064A8C"/>
<path d="M357.24 175.007H362.147V179.698H357.24V175.007Z" fill="#0078D4"/>
<path opacity="0.5" d="M354.124 181.432L344.48 174.708L344.885 174.028C344.885 174.028 353.672 178.812 353.806 178.884C353.861 178.905 353.92 178.915 353.979 178.914C354.038 178.912 354.096 178.899 354.15 178.875L363.09 174.004L363.496 174.684L354.124 181.432Z" fill="#0A2767"/>
<path d="M363.51 174.676L363.499 174.682L363.496 174.684L354.633 179.511C354.457 179.619 354.255 179.683 354.046 179.695C353.837 179.708 353.628 179.669 353.439 179.582L356.526 183.539L363.275 184.944V184.947C363.433 184.838 363.56 184.696 363.648 184.531C363.737 184.366 363.783 184.183 363.783 183.998V174.225C363.783 174.316 363.757 174.406 363.71 174.485C363.662 174.564 363.593 174.63 363.51 174.676V174.676Z" fill="#1490DF"/>
<path opacity="0.05" d="M363.783 183.998V183.421L355.619 178.974L354.633 179.511C354.457 179.619 354.255 179.683 354.046 179.695C353.837 179.708 353.628 179.669 353.439 179.582L356.526 183.539L363.275 184.944V184.947C363.433 184.838 363.56 184.696 363.648 184.531C363.737 184.366 363.783 184.183 363.783 183.998V183.998Z" fill="black"/>
<path opacity="0.1" d="M363.742 184.297L354.793 179.424L354.633 179.51C354.457 179.618 354.255 179.682 354.046 179.695C353.837 179.707 353.628 179.668 353.439 179.582L356.526 183.539L363.275 184.944V184.947C363.504 184.788 363.669 184.559 363.742 184.298V184.297Z" fill="black"/>
<path d="M344.442 174.686V174.678H344.434L344.41 174.663C344.332 174.617 344.267 174.552 344.223 174.476C344.178 174.399 344.155 174.313 344.156 174.225V183.998C344.156 184.152 344.188 184.304 344.249 184.447C344.311 184.589 344.401 184.718 344.515 184.827C344.629 184.936 344.764 185.023 344.913 185.082C345.062 185.14 345.222 185.171 345.383 185.17H362.556C362.658 185.169 362.76 185.156 362.858 185.131C362.91 185.123 362.959 185.107 363.006 185.084C363.023 185.083 363.04 185.077 363.055 185.069C363.122 185.043 363.185 185.008 363.243 184.967C363.259 184.959 363.267 184.959 363.276 184.944L344.442 174.686Z" fill="#28A8EA"/>
<path opacity="0.1" d="M352.334 181.001V168.23C352.333 167.954 352.218 167.69 352.014 167.494C351.809 167.299 351.533 167.189 351.244 167.188H345.816V173.018L344.442 173.767L344.438 173.768L344.429 173.774C344.346 173.819 344.277 173.885 344.229 173.964C344.181 174.043 344.156 174.133 344.156 174.225V174.229V174.225V182.043H351.244C351.533 182.042 351.809 181.932 352.014 181.737C352.218 181.542 352.333 181.277 352.334 181.001V181.001Z" fill="black"/>
<path opacity="0.2" d="M351.516 181.783V169.012C351.515 168.736 351.4 168.472 351.196 168.276C350.992 168.081 350.715 167.971 350.426 167.97H345.816V173.018L344.442 173.767L344.438 173.768L344.429 173.774C344.346 173.819 344.277 173.885 344.229 173.964C344.181 174.044 344.156 174.133 344.156 174.225V174.229V174.225V182.825H350.426C350.715 182.824 350.992 182.714 351.196 182.519C351.4 182.323 351.515 182.059 351.516 181.783V181.783Z" fill="black"/>
<path opacity="0.2" d="M351.516 180.219V169.012C351.515 168.736 351.4 168.472 351.196 168.276C350.992 168.081 350.715 167.971 350.426 167.97H345.816V173.018L344.442 173.767L344.438 173.768L344.429 173.774C344.346 173.819 344.277 173.885 344.229 173.964C344.181 174.044 344.156 174.133 344.156 174.225V174.229V174.225V181.261H350.426C350.715 181.26 350.992 181.15 351.196 180.955C351.4 180.76 351.515 180.495 351.516 180.219V180.219Z" fill="black"/>
<path opacity="0.2" d="M350.698 180.219V169.012C350.697 168.736 350.582 168.472 350.378 168.276C350.174 168.081 349.897 167.971 349.608 167.97H345.816V173.018L344.442 173.767L344.438 173.768L344.429 173.774C344.346 173.819 344.277 173.885 344.229 173.964C344.181 174.044 344.156 174.133 344.156 174.225V174.229V174.225V181.261H349.608C349.897 181.26 350.174 181.15 350.378 180.955C350.582 180.76 350.697 180.495 350.698 180.219V180.219Z" fill="black"/>
<path d="M338.703 167.97H349.607C349.897 167.97 350.174 168.08 350.378 168.275C350.583 168.471 350.697 168.736 350.697 169.012V179.437C350.697 179.714 350.583 179.979 350.378 180.174C350.174 180.37 349.897 180.479 349.607 180.479H338.703C338.414 180.479 338.137 180.37 337.933 180.174C337.728 179.979 337.613 179.714 337.613 179.437V169.012C337.613 168.736 337.728 168.471 337.933 168.275C338.137 168.08 338.414 167.97 338.703 167.97V167.97Z" fill="#0078D4"/>
<path d="M340.777 172.245C341.066 171.655 341.534 171.161 342.119 170.827C342.768 170.472 343.507 170.295 344.254 170.316C344.946 170.301 345.628 170.469 346.227 170.8C346.791 171.121 347.245 171.592 347.534 172.155C347.849 172.776 348.006 173.459 347.992 174.149C348.007 174.869 347.845 175.583 347.52 176.233C347.225 176.816 346.757 177.304 346.175 177.636C345.552 177.978 344.844 178.15 344.126 178.134C343.419 178.15 342.721 177.98 342.108 177.644C341.54 177.322 341.08 176.851 340.785 176.286C340.468 175.675 340.309 174.999 340.321 174.317C340.307 173.602 340.463 172.894 340.777 172.245V172.245ZM342.208 175.574C342.362 175.947 342.624 176.271 342.963 176.508C343.308 176.739 343.721 176.858 344.143 176.848C344.591 176.864 345.034 176.741 345.403 176.497C345.738 176.26 345.993 175.935 346.136 175.561C346.297 175.144 346.376 174.703 346.37 174.259C346.375 173.811 346.3 173.365 346.149 172.941C346.016 172.559 345.77 172.223 345.441 171.971C345.082 171.715 344.641 171.584 344.192 171.602C343.762 171.591 343.339 171.711 342.985 171.945C342.639 172.182 342.371 172.508 342.213 172.885C341.861 173.75 341.859 174.709 342.207 175.575L342.208 175.574Z" fill="white"/>
</g>
<g filter="url(#filter4_d)">
<rect x="203.383" y="45" width="69.3693" height="69.3693" rx="15" fill="white"/>
</g>
<g filter="url(#filter5_d)">
<rect x="65" y="144" width="68.1432" height="64.6783" rx="15" fill="white"/>
</g>
<path d="M84.48 183.96C83.0933 183.96 81.8267 183.633 80.68 182.98C79.5333 182.327 78.6333 181.427 77.98 180.28C77.3267 179.133 77 177.867 77 176.48C77 175.093 77.3267 173.827 77.98 172.68C78.6333 171.533 79.5333 170.633 80.68 169.98C81.8267 169.327 83.0933 169 84.48 169C85.56 169 86.54 169.2 87.42 169.6C88.3133 170 89.1 170.58 89.78 171.34L88.18 172.88C87.6867 172.293 87.14 171.86 86.54 171.58C85.94 171.287 85.2533 171.14 84.48 171.14C83.52 171.14 82.64 171.36 81.84 171.8C81.0533 172.24 80.4267 172.867 79.96 173.68C79.4933 174.48 79.26 175.413 79.26 176.48C79.26 177.547 79.4933 178.487 79.96 179.3C80.4267 180.1 81.0533 180.72 81.84 181.16C82.64 181.6 83.52 181.82 84.48 181.82C86.08 181.82 87.44 181.153 88.56 179.82L90.18 181.38C89.4867 182.193 88.6533 182.827 87.68 183.28C86.7067 183.733 85.64 183.96 84.48 183.96Z" fill="#393F77"/>
<path d="M93.0809 169.32H98.1209C98.9743 169.32 99.7543 169.507 100.461 169.88C101.168 170.253 101.721 170.773 102.121 171.44C102.534 172.107 102.741 172.86 102.741 173.7C102.741 174.66 102.428 175.513 101.801 176.26C101.188 177.007 100.414 177.507 99.4809 177.76L99.4609 177.86L103.381 183.52V183.64H100.781L97.0009 178.04H95.3209V183.64H93.0809V169.32ZM98.0609 175.96C98.7276 175.96 99.2943 175.747 99.7609 175.32C100.228 174.893 100.461 174.347 100.461 173.68C100.461 173.307 100.368 172.947 100.181 172.6C99.9943 172.253 99.7276 171.973 99.3809 171.76C99.0343 171.533 98.6209 171.42 98.1409 171.42H95.3209V175.96H98.0609Z" fill="#393F77"/>
<path d="M105.727 169.32H108.767L112.887 180.18H113.007L117.127 169.32H120.167V183.64H117.947V175.62L118.067 173.04H117.947L113.847 183.64H112.047L107.947 173.04H107.827L107.947 175.62V183.64H105.727V169.32Z" fill="#393F77"/>
<g filter="url(#filter6_d)">
<rect x="119.604" y="268.049" width="29.3772" height="29.3772" rx="5" fill="white"/>
</g>
<path d="M238.412 57.3875H238.401C225.919 57.3875 215.77 67.5401 215.77 80.0244C215.77 84.9762 217.365 89.5659 220.079 93.2925L217.258 101.702L225.959 98.9206C229.538 101.292 233.808 102.661 238.412 102.661C250.894 102.661 261.043 92.5058 261.043 80.0244C261.043 67.543 250.894 57.3875 238.412 57.3875Z" fill="#4CAF50"/>
<path d="M251.585 89.3541C251.039 90.8962 248.872 92.1752 247.143 92.5487C245.96 92.8006 244.415 93.0015 239.214 90.8453C232.562 88.0892 228.278 81.3293 227.944 80.8907C227.624 80.4521 225.256 77.3112 225.256 74.0628C225.256 70.8144 226.906 69.2327 227.57 68.5536C228.117 67.9961 229.019 67.7415 229.885 67.7415C230.165 67.7415 230.417 67.7556 230.643 67.7669C231.308 67.7952 231.642 67.8348 232.081 68.8846C232.627 70.2004 233.957 73.4488 234.115 73.7827C234.277 74.1166 234.438 74.5693 234.212 75.0079C233.999 75.4607 233.813 75.6616 233.479 76.0464C233.145 76.4312 232.828 76.7255 232.494 77.1386C232.188 77.498 231.843 77.8828 232.228 78.5478C232.613 79.1986 233.943 81.3689 235.901 83.1119C238.428 85.3615 240.476 86.0802 241.209 86.3858C241.755 86.6122 242.406 86.5584 242.805 86.134C243.312 85.5879 243.937 84.6824 244.574 83.791C245.026 83.1516 245.598 83.0723 246.198 83.2987C246.809 83.5109 250.043 85.1096 250.708 85.4407C251.373 85.7746 251.812 85.9331 251.973 86.2132C252.132 86.4933 252.132 87.8091 251.585 89.3541Z" fill="#FAFAFA"/>
<g clip-path="url(#clip1)">
<path d="M436.689 207.466C428.392 207.302 421.527 213.881 421.338 222.177C421.36 226.4 423.229 230.401 426.455 233.127V237.527C426.455 237.881 426.741 238.167 427.094 238.167C427.214 238.167 427.332 238.133 427.433 238.07L430.999 235.843C432.815 236.538 434.744 236.892 436.689 236.888C444.985 237.051 451.85 230.472 452.039 222.177C451.85 213.881 444.985 207.302 436.689 207.466Z" fill="#2196F3"/>
<path d="M446.794 217.955C446.604 217.7 446.255 217.624 445.975 217.776L439.323 221.403L435.185 217.854C434.931 217.637 434.553 217.651 434.316 217.888L426.641 225.563C426.392 225.813 426.393 226.218 426.644 226.467C426.844 226.667 427.151 226.711 427.4 226.576L434.052 222.949L438.194 226.499C438.448 226.717 438.826 226.702 439.062 226.466L446.738 218.791C446.961 218.565 446.985 218.209 446.794 217.955Z" fill="#FAFAFA"/>
</g>
<line x1="134.477" y1="276.753" x2="134.477" y2="288.722" stroke="#3364FA" stroke-linejoin="round"/>
<line x1="128.309" y1="282.553" x2="140.277" y2="282.553" stroke="#3364FA" stroke-linejoin="round"/>
<g clip-path="url(#clip2)">
<path d="M328.333 316.418C334.712 316.418 339.883 311.506 339.883 305.446C339.883 299.386 334.712 294.474 328.333 294.474C321.954 294.474 316.783 299.386 316.783 305.446C316.783 311.506 321.954 316.418 328.333 316.418Z" fill="#039BE5"/>
<path d="M322.069 305.208L333.205 301.13C333.722 300.952 334.173 301.249 334.006 301.992L334.007 301.991L332.111 310.477C331.97 311.079 331.594 311.225 331.067 310.941L328.18 308.92L326.787 310.194C326.633 310.341 326.503 310.464 326.205 310.464L326.41 307.673L331.761 303.08C331.994 302.885 331.709 302.775 331.402 302.969L324.789 306.925L321.938 306.08C321.319 305.893 321.306 305.492 322.069 305.208V305.208Z" fill="white"/>
</g>
<g filter="url(#filter7_d)">
<rect x="212.836" y="368.392" width="44.6647" height="44.6647" rx="11" fill="white"/>
</g>
<g clip-path="url(#clip3)">
<path d="M246.981 379.439C249.068 381.607 248.641 383.911 248.641 390.908C248.641 396.719 249.655 402.544 244.349 403.916C242.692 404.342 228.011 404.342 226.356 403.914C224.147 403.344 222.349 401.552 222.103 398.427C222.069 397.991 222.069 383.833 222.105 383.388C222.366 380.06 224.415 378.142 227.114 377.753C227.733 377.664 227.857 377.637 231.031 377.632C242.291 377.637 244.76 377.136 246.981 379.439V379.439Z" fill="url(#paint0_linear)"/>
<path d="M235.362 381.106C239.381 381.106 243.197 380.748 244.655 384.49C245.257 386.035 245.169 388.041 245.169 390.915C245.169 393.436 245.25 395.806 244.655 397.339C243.2 401.082 239.353 400.724 235.364 400.724C231.515 400.724 227.547 401.124 226.072 397.339C225.469 395.778 225.557 393.801 225.557 390.915C225.557 387.083 225.346 384.609 227.204 382.752C229.086 380.87 231.63 381.106 235.366 381.106H235.362ZM236.24 382.874C227.857 382.86 226.79 381.928 227.379 394.875C227.588 399.454 231.075 398.952 235.361 398.952C243.175 398.952 243.4 398.728 243.4 390.91C243.4 383.002 242.78 382.878 236.24 382.871V382.874ZM230.126 384.502C230.776 384.502 231.303 385.029 231.303 385.678C231.303 386.328 230.776 386.855 230.126 386.855C229.477 386.855 228.95 386.328 228.95 385.678C228.95 385.029 229.477 384.502 230.126 384.502V384.502ZM235.362 385.878C238.143 385.878 240.398 388.133 240.398 390.915C240.398 393.696 238.143 395.951 235.362 395.951C232.58 395.951 230.327 393.696 230.327 390.915C230.327 388.133 232.58 385.878 235.362 385.878V385.878ZM235.362 387.645C231.039 387.645 231.034 394.184 235.362 394.184C239.683 394.184 239.689 387.645 235.362 387.645Z" fill="white"/>
</g>
<defs>
<filter id="filter0_d" x="294.287" y="320.747" width="197.095" height="197.095" filterUnits="userSpaceOnUse" color-interpolation-filters="sRGB">
<feFlood flood-opacity="0" result="BackgroundImageFix"/>
<feColorMatrix in="SourceAlpha" type="matrix" values="0 0 0 0 0 0 0 0 0 0 0 0 0 0 0 0 0 0 127 0"/>
<feOffset dy="20"/>
<feGaussianBlur stdDeviation="32.5"/>
<feColorMatrix type="matrix" values="0 0 0 0 0 0 0 0 0 0 0 0 0 0 0 0 0 0 0.18 0"/>
<feBlend mode="normal" in2="BackgroundImageFix" result="effect1_dropShadow"/>
<feBlend mode="normal" in="SourceGraphic" in2="effect1_dropShadow" result="shape"/>
</filter>
<filter id="filter1_d" x="348.375" y="154.502" width="176.625" height="176.625" filterUnits="userSpaceOnUse" color-interpolation-filters="sRGB">
<feFlood flood-opacity="0" result="BackgroundImageFix"/>
<feColorMatrix in="SourceAlpha" type="matrix" values="0 0 0 0 0 0 0 0 0 0 0 0 0 0 0 0 0 0 127 0"/>
<feOffset dy="20"/>
<feGaussianBlur stdDeviation="32.5"/>
<feColorMatrix type="matrix" values="0 0 0 0 0 0 0 0 0 0 0 0 0 0 0 0 0 0 0.23 0"/>
<feBlend mode="normal" in2="BackgroundImageFix" result="effect1_dropShadow"/>
<feBlend mode="normal" in="SourceGraphic" in2="effect1_dropShadow" result="shape"/>
</filter>
<filter id="filter2_d" x="266.77" y="109.893" width="169.802" height="169.802" filterUnits="userSpaceOnUse" color-interpolation-filters="sRGB">
<feFlood flood-opacity="0" result="BackgroundImageFix"/>
<feColorMatrix in="SourceAlpha" type="matrix" values="0 0 0 0 0 0 0 0 0 0 0 0 0 0 0 0 0 0 127 0"/>
<feOffset dy="20"/>
<feGaussianBlur stdDeviation="32.5"/>
<feColorMatrix type="matrix" values="0 0 0 0 0 0 0 0 0 0 0 0 0 0 0 0 0 0 0.23 0"/>
<feBlend mode="normal" in2="BackgroundImageFix" result="effect1_dropShadow"/>
<feBlend mode="normal" in="SourceGraphic" in2="effect1_dropShadow" result="shape"/>
</filter>
<filter id="filter3_d" x="244.854" y="220.389" width="168.114" height="168.114" filterUnits="userSpaceOnUse" color-interpolation-filters="sRGB">
<feFlood flood-opacity="0" result="BackgroundImageFix"/>
<feColorMatrix in="SourceAlpha" type="matrix" values="0 0 0 0 0 0 0 0 0 0 0 0 0 0 0 0 0 0 127 0"/>
<feOffset dy="-1"/>
<feGaussianBlur stdDeviation="32.5"/>
<feColorMatrix type="matrix" values="0 0 0 0 0 0 0 0 0 0 0 0 0 0 0 0 0 0 0.27 0"/>
<feBlend mode="normal" in2="BackgroundImageFix" result="effect1_dropShadow"/>
<feBlend mode="normal" in="SourceGraphic" in2="effect1_dropShadow" result="shape"/>
</filter>
<filter id="filter4_d" x="138.383" y="0" width="199.369" height="199.369" filterUnits="userSpaceOnUse" color-interpolation-filters="sRGB">
<feFlood flood-opacity="0" result="BackgroundImageFix"/>
<feColorMatrix in="SourceAlpha" type="matrix" values="0 0 0 0 0 0 0 0 0 0 0 0 0 0 0 0 0 0 127 0"/>
<feOffset dy="20"/>
<feGaussianBlur stdDeviation="32.5"/>
<feColorMatrix type="matrix" values="0 0 0 0 0 0 0 0 0 0 0 0 0 0 0 0 0 0 0.16 0"/>
<feBlend mode="normal" in2="BackgroundImageFix" result="effect1_dropShadow"/>
<feBlend mode="normal" in="SourceGraphic" in2="effect1_dropShadow" result="shape"/>
</filter>
<filter id="filter5_d" x="0" y="99" width="198.143" height="194.678" filterUnits="userSpaceOnUse" color-interpolation-filters="sRGB">
<feFlood flood-opacity="0" result="BackgroundImageFix"/>
<feColorMatrix in="SourceAlpha" type="matrix" values="0 0 0 0 0 0 0 0 0 0 0 0 0 0 0 0 0 0 127 0"/>
<feOffset dy="20"/>
<feGaussianBlur stdDeviation="32.5"/>
<feColorMatrix type="matrix" values="0 0 0 0 0 0 0 0 0 0 0 0 0 0 0 0 0 0 0.13 0"/>
<feBlend mode="normal" in2="BackgroundImageFix" result="effect1_dropShadow"/>
<feBlend mode="normal" in="SourceGraphic" in2="effect1_dropShadow" result="shape"/>
</filter>
<filter id="filter6_d" x="56.6035" y="223.049" width="159.377" height="159.377" filterUnits="userSpaceOnUse" color-interpolation-filters="sRGB">
<feFlood flood-opacity="0" result="BackgroundImageFix"/>
<feColorMatrix in="SourceAlpha" type="matrix" values="0 0 0 0 0 0 0 0 0 0 0 0 0 0 0 0 0 0 127 0"/>
<feOffset dx="2" dy="20"/>
<feGaussianBlur stdDeviation="32.5"/>
<feColorMatrix type="matrix" values="0 0 0 0 0 0 0 0 0 0 0 0 0 0 0 0 0 0 0.26 0"/>
<feBlend mode="normal" in2="BackgroundImageFix" result="effect1_dropShadow"/>
<feBlend mode="normal" in="SourceGraphic" in2="effect1_dropShadow" result="shape"/>
</filter>
<filter id="filter7_d" x="147.836" y="323.392" width="174.665" height="174.665" filterUnits="userSpaceOnUse" color-interpolation-filters="sRGB">
<feFlood flood-opacity="0" result="BackgroundImageFix"/>
<feColorMatrix in="SourceAlpha" type="matrix" values="0 0 0 0 0 0 0 0 0 0 0 0 0 0 0 0 0 0 127 0"/>
<feOffset dy="20"/>
<feGaussianBlur stdDeviation="32.5"/>
<feColorMatrix type="matrix" values="0 0 0 0 0 0 0 0 0 0 0 0 0 0 0 0 0 0 0.23 0"/>
<feBlend mode="normal" in2="BackgroundImageFix" result="effect1_dropShadow"/>
<feBlend mode="normal" in="SourceGraphic" in2="effect1_dropShadow" result="shape"/>
</filter>
<linearGradient id="paint0_linear" x1="246.93" y1="402.499" x2="222.241" y2="381.131" gradientUnits="userSpaceOnUse">
<stop stop-color="#FFDD55"/>
<stop offset="0.5" stop-color="#FF543E"/>
<stop offset="1" stop-color="#C837AB"/>
</linearGradient>
<clipPath id="clip0">
<rect width="27.2928" height="25.0184" fill="white" transform="translate(337.457 161.716)"/>
</clipPath>
<clipPath id="clip1">
<rect width="30.7045" height="30.7045" fill="white" transform="translate(421.336 207.463)"/>
</clipPath>
<clipPath id="clip2">
<rect width="23.0994" height="21.9444" fill="white" transform="translate(316.783 294.474)"/>
</clipPath>
<clipPath id="clip3">
<rect width="26.5643" height="26.5643" fill="white" transform="matrix(-1 0 0 1 248.641 377.632)"/>
</clipPath>
</defs>
</svg>
