<svg id="Layer_1" data-name="Layer 1" xmlns="http://www.w3.org/2000/svg" viewBox="0 0 235.82 235.82"><defs><style>.cls-1{fill:#f5f6f6;}.cls-2,.cls-5{fill:#6d6b6b;}.cls-2{opacity:0.4;}.cls-3{fill:#919191;}.cls-4{fill:#d3d3d3;}.cls-6{fill:#547bbe;}.cls-10,.cls-11,.cls-7{fill:none;stroke-linecap:round;}.cls-7{stroke:#547bbe;stroke-width:0.5px;}.cls-10,.cls-7{stroke-linejoin:round;}.cls-8{fill:#1d4778;}.cls-9{fill:#a6bfe4;}.cls-10{stroke:#6d6e6e;stroke-width:3px;}.cls-11{stroke:#8c8c8c;stroke-miterlimit:10;stroke-width:1.6px;stroke-dasharray:4 6;}.cls-12{fill:#c2c1c1;}</style></defs><title>Artboard 1</title><circle class="cls-1" cx="117.91" cy="117.91" r="117.91"/><polygon class="cls-2" points="50.55 98.1 63.74 80.74 64.44 98.1 50.55 98.1"/><polygon class="cls-2" points="180.01 98.1 166.82 80.74 166.13 98.1 180.01 98.1"/><rect class="cls-3" x="63.74" y="80.43" width="103.43" height="40.96"/><path class="cls-4" d="M50.55,97.44H180.36a0,0,0,0,1,0,0v78.12a5.88,5.88,0,0,1-5.87,5.88H56.43a5.88,5.88,0,0,1-5.87-5.87V97.44A0,0,0,0,1,50.55,97.44Z"/><circle class="cls-5" cx="100.13" cy="144.38" r="2.88"/><circle class="cls-5" cx="131.41" cy="144.88" r="2.9"/><rect class="cls-6" x="138.47" y="19.56" width="4.38" height="13.36" rx="2.04" ry="2.04" transform="translate(75.83 153.8) rotate(-73.63)"/><circle class="cls-6" cx="133.8" cy="26.13" r="2.03"/><circle class="cls-6" cx="134.89" cy="22.43" r="2.03"/><path class="cls-7" d="M130.16,24.61a5.77,5.77,0,0,1,4.72-.21"/><path class="cls-7" d="M131.4,21.23a4.7,4.7,0,0,0,3.53,3"/><rect class="cls-8" x="135.78" y="21.17" width="4.67" height="9.14" rx="2.17" ry="2.17" transform="translate(74.48 151) rotate(-73.63)"/><path class="cls-9" d="M135.1,26.48s2.66,13.69,6.77,9.74C147.08,31.23,135.1,26.48,135.1,26.48Z"/><path class="cls-9" d="M136.36,23.22s10.7-9.34,11.81-3.5C149.38,26.07,136.36,23.22,136.36,23.22Z"/><path class="cls-10" d="M108.09,160.44s2.19-5,9.26-4.76,8,4.5,8,4.5"/><path class="cls-11" d="M97.74,91.1s-8-11.34,8.67-26,42.66,1.33,68-4,.33-28.34-17-29"/><rect class="cls-3" x="95.38" y="104.38" width="38.82" height="9.37" rx="4.5" ry="4.5"/><ellipse class="cls-12" cx="61.87" cy="47.24" rx="4.38" ry="4.44"/><circle class="cls-12" cx="79.41" cy="56.76" r="1.33"/><circle class="cls-12" cx="58.74" cy="74.1" r="1.33"/></svg>