<svg width="216" height="200" viewBox="0 0 216 200" fill="none" xmlns="http://www.w3.org/2000/svg">
<mask id="mask0_8767:84114" style="mask-type:alpha" maskUnits="userSpaceOnUse" x="0" y="0" width="216" height="200">
<rect x="0.126953" width="215.748" height="200" fill="#C4C4C4"/>
</mask>
<g mask="url(#mask0_8767:84114)">
<path d="M23.8847 112.939L25.9134 119.65C26.2677 120.816 27.1813 121.728 28.3485 122.08L35.061 124.112C35.4988 124.244 35.7461 124.706 35.614 125.143C35.5339 125.408 35.3265 125.616 35.061 125.696L28.3485 127.728C27.1813 128.08 26.2677 128.992 25.9134 130.159L23.8847 136.869C23.7557 137.307 23.2959 137.559 22.857 137.43C22.5866 137.35 22.3755 137.139 22.2961 136.869L20.2637 130.159C19.912 128.992 18.9992 128.08 17.8323 127.728L11.1198 125.696C10.682 125.564 10.4348 125.102 10.5668 124.665C10.647 124.4 10.8543 124.192 11.1198 124.112L17.8323 122.08C18.9992 121.729 19.912 120.816 20.2637 119.65L22.2961 112.939C22.4251 112.501 22.8849 112.25 23.3239 112.379C23.5938 112.458 23.8053 112.669 23.8847 112.939Z" fill="white"/>
<path d="M23.097 138.581C22.9128 138.581 22.7275 138.555 22.5455 138.501C21.907 138.314 21.414 137.821 21.2265 137.183L19.1967 130.482C18.9521 129.671 18.3229 129.042 17.513 128.798L10.7997 126.765C10.3026 126.615 9.89319 126.28 9.64781 125.822C9.40205 125.363 9.34985 124.837 9.50013 124.339C9.68883 123.715 10.1751 123.229 10.8001 123.04L17.5122 121.008C18.3233 120.764 18.9524 120.135 19.1967 119.325L21.2295 112.614C21.5293 111.593 22.6133 111.002 23.643 111.304C24.2799 111.491 24.7718 111.981 24.9605 112.617L26.988 119.324C27.2338 120.133 27.8651 120.763 28.6758 121.008L35.3891 123.039C35.8862 123.19 36.2956 123.525 36.541 123.983C36.7868 124.441 36.839 124.968 36.6887 125.465C36.5 126.09 36.0141 126.576 35.3887 126.765L28.6766 128.797C27.8651 129.041 27.2338 129.671 26.9876 130.482L24.9597 137.191C24.8158 137.681 24.4839 138.093 24.0274 138.342C23.7369 138.501 23.4188 138.581 23.097 138.581ZM22.8166 136.548C22.8162 136.55 22.8158 136.551 22.8155 136.553L22.8166 136.548ZM23.3696 136.539L23.3707 136.544C23.3704 136.542 23.37 136.541 23.3696 136.539ZM12.3671 124.903L18.1604 126.656C19.6889 127.117 20.8774 128.305 21.3387 129.834L23.0944 135.63L24.8467 129.834C25.3114 128.305 26.501 127.117 28.0296 126.656L33.8221 124.903L28.0288 123.149C26.501 122.688 25.3114 121.501 24.8471 119.973L23.0944 114.176L21.3387 119.972C20.8778 121.5 19.6893 122.688 18.1596 123.149L12.3671 124.903ZM34.7409 125.181H34.7447H34.7409ZM23.3737 113.253L23.3722 113.258C23.3726 113.256 23.373 113.255 23.3737 113.253Z" fill="#282828"/>
<path d="M186.359 43.1381L173.466 69.3497C173.299 69.6959 172.961 69.9279 172.576 69.9647C172.538 69.9684 172.501 69.9721 172.468 69.9721C172.119 69.9721 171.792 69.81 171.581 69.5339L156.769 50.2231C156.543 49.9285 156.48 49.5419 156.602 49.1884C156.729 48.8385 157.022 48.5734 157.386 48.485L185.09 41.5841C185.509 41.4773 185.951 41.6246 186.225 41.9597C186.496 42.2911 186.549 42.7514 186.359 43.1381Z" fill="#CCFFE3"/>
<path d="M201.343 107.617C201.007 107.617 200.675 107.467 200.456 107.181L182.614 83.9193C182.242 83.4339 182.337 82.7405 182.826 82.3712C183.316 82.0015 184.014 82.0961 184.386 82.5811L202.228 105.843C202.6 106.328 202.505 107.022 202.016 107.391C201.815 107.543 201.578 107.617 201.343 107.617Z" fill="#282828"/>
<path d="M178.647 78.0297C178.311 78.0297 177.979 77.8795 177.76 77.5941L155.712 48.8478C155.34 48.3625 155.434 47.6691 155.923 47.2997C156.413 46.9304 157.111 47.0247 157.484 47.5096L179.532 76.2559C179.904 76.7413 179.81 77.4347 179.321 77.804C179.119 77.9561 178.882 78.0297 178.647 78.0297Z" fill="#282828"/>
<path d="M17.4531 181.401L47.3691 141.443C49.7148 138.399 52.7279 135.934 56.1763 134.238C59.6246 132.542 63.4163 131.661 67.2591 131.661L76.2015 131.476V130.781C78.3675 135.038 82.1071 138.077 88.5869 138.037C93.5646 138.007 99.129 135.645 100.519 131.129V131.823C100.519 131.823 130.036 132.626 131.436 132.866L148.458 134.255L139.426 166.216L90.7918 191.924L17.4931 181.502" fill="white"/>
<path d="M90.7941 192.965C90.7449 192.965 90.6958 192.962 90.6471 192.955L17.3485 182.533C17.1638 182.496 16.991 182.415 16.8455 182.296C16.6999 182.177 16.5861 182.023 16.5142 181.849C16.4424 181.676 16.4146 181.487 16.4335 181.299C16.4524 181.112 16.5173 180.933 16.6224 180.777L46.5043 140.864C46.5172 140.844 46.5311 140.825 46.5457 140.806C48.9886 137.636 52.1265 135.069 55.7178 133.302C59.3091 131.536 63.2579 130.618 67.26 130.618L75.2127 130.453C75.2772 130.257 75.3982 130.085 75.5603 129.959C75.7223 129.832 75.9183 129.756 76.1235 129.74C76.3287 129.725 76.5339 129.77 76.7133 129.871C76.8926 129.972 77.0381 130.124 77.1314 130.307C79.4373 134.84 83.1933 137.031 88.5816 136.993C93.0837 136.966 98.2876 134.837 99.5243 130.821C99.5894 130.609 99.7204 130.424 99.8982 130.291C100.076 130.159 100.291 130.087 100.513 130.085C100.735 130.084 100.951 130.153 101.131 130.282C101.31 130.412 101.444 130.596 101.512 130.807C107.097 130.96 129.669 131.592 131.549 131.828L148.544 133.215C148.698 133.228 148.846 133.274 148.98 133.351C149.113 133.428 149.228 133.533 149.315 133.66C149.403 133.786 149.462 133.93 149.487 134.082C149.513 134.234 149.504 134.389 149.462 134.538L140.43 166.499C140.392 166.634 140.326 166.761 140.238 166.87C140.149 166.98 140.039 167.071 139.915 167.136L91.2804 192.844C91.1306 192.924 90.9636 192.965 90.7941 192.965ZM19.2817 180.702L90.6058 190.844L138.545 165.502L147.113 135.19L131.354 133.904C131.323 133.902 131.293 133.898 131.263 133.893C130.169 133.725 112.686 133.198 100.923 132.877C98.7145 137.089 93.1994 139.051 88.5958 139.079C82.9431 139.115 78.705 136.91 75.9878 132.523L67.2829 132.703C65.9148 132.703 64.5491 132.818 63.2004 133.048C57.2592 134.057 51.9151 137.265 48.2305 142.033C48.2228 142.045 48.2149 142.056 48.2065 142.068L19.2817 180.702Z" fill="#282828"/>
<path d="M171.093 91.2211C168.346 95.5362 165.677 99.6887 165.338 100.261L140.055 142.905L139.649 143.589C138.076 146.285 137.28 149.364 137.35 152.485C137.419 155.605 138.351 158.646 140.043 161.269L141.448 163.113C151.522 161.956 161.146 158.297 169.444 152.468L174.745 147.147L188.423 115.089C190.135 113.5 191.409 111.497 192.121 109.273C194.14 102.672 193.4 97.3775 203.509 93.2607C208.07 91.4021 215.184 89.3247 213.281 85.0724C211.961 82.1299 203.554 84.2178 197.273 85.5345C204.655 80.0316 214.295 72.8161 212.02 69.3351C209.744 65.8541 202.23 70.4537 192.715 77.6519C201.747 67.9246 207.879 64.0441 205.28 60.9766C202.428 57.587 192.731 64.8178 185.077 72.4836" fill="white"/>
<path d="M141.447 164.155C141.287 164.155 141.129 164.118 140.986 164.047C140.842 163.976 140.717 163.873 140.62 163.746L139.214 161.902C139.197 161.88 139.181 161.858 139.166 161.833C137.372 159.048 136.383 155.82 136.309 152.507C136.236 149.194 137.08 145.926 138.749 143.064L139.16 142.372L164.44 99.7297C164.659 99.3604 165.741 97.6665 167.239 95.3222C168.137 93.9173 169.169 92.2998 170.213 90.6618C170.361 90.4286 170.596 90.2639 170.866 90.204C171.136 90.1441 171.419 90.1939 171.652 90.3423C171.885 90.4908 172.05 90.7258 172.11 90.9957C172.17 91.2656 172.12 91.5483 171.971 91.7815C170.927 93.4219 169.894 95.0387 168.996 96.4446C167.565 98.684 166.435 100.453 166.234 100.792L140.544 144.122C139.074 146.645 138.329 149.526 138.391 152.446C138.453 155.366 139.32 158.212 140.896 160.671L141.915 162.007C151.573 160.794 160.79 157.245 168.768 151.667L173.865 146.554L187.465 114.681C187.522 114.546 187.607 114.425 187.714 114.326C189.294 112.857 190.47 111.008 191.129 108.955C191.479 107.808 191.749 106.681 192.01 105.589C193.256 100.376 194.332 95.8728 203.116 92.2956C203.666 92.0715 204.254 91.844 204.859 91.6095C207.885 90.4374 211.652 88.9786 212.42 87.1103C212.522 86.8509 212.566 86.5727 212.551 86.2945C212.535 86.0164 212.459 85.745 212.329 85.4987C212.179 85.1631 211.451 84.4103 207.96 84.6781C205.332 84.8799 202.014 85.589 199.087 86.215C198.543 86.3314 198.008 86.4457 197.489 86.5548C197.257 86.6035 197.015 86.5714 196.803 86.4638C196.591 86.3563 196.423 86.1796 196.325 85.9632C196.228 85.7468 196.207 85.5036 196.266 85.2737C196.326 85.0439 196.462 84.8412 196.652 84.6993C200.154 82.0886 204.512 78.84 207.548 75.9253C210.491 73.0999 211.803 70.906 211.149 69.9058C211.033 69.7225 210.878 69.5669 210.695 69.4501C210.512 69.3333 210.305 69.2581 210.09 69.2298C206.8 68.6566 198.958 74.2372 193.346 78.4836C193.138 78.6407 192.879 78.7143 192.619 78.6898C192.36 78.6653 192.119 78.5444 191.944 78.3511C191.769 78.1578 191.673 77.9059 191.675 77.6453C191.677 77.3847 191.776 77.1342 191.953 76.9432C194.474 74.2282 196.723 72.0125 198.707 70.0576C203.454 65.3788 205.686 63.0682 204.484 61.6505C204.342 61.4887 204.166 61.3609 203.968 61.2767C203.77 61.1925 203.555 61.154 203.34 61.1641C200.185 61.0279 193.148 65.8756 185.813 73.2211C185.618 73.4167 185.353 73.5267 185.077 73.5269C184.8 73.5271 184.535 73.4175 184.339 73.2221C184.144 73.0268 184.034 72.7618 184.034 72.4853C184.033 72.2089 184.143 71.9437 184.338 71.7481C187.367 68.7149 197.689 58.8417 203.429 59.0814C203.932 59.0862 204.428 59.1978 204.885 59.409C205.341 59.6202 205.748 59.9261 206.077 60.3064C208.377 63.0217 205.883 65.8777 201.387 70.339C205.599 67.7787 208.424 66.8254 210.443 67.1777C210.941 67.2528 211.417 67.4334 211.839 67.7075C212.261 67.9816 212.62 68.3427 212.891 68.7667C215.172 72.2567 209.751 77.3222 201.632 83.5518C207.486 82.3679 212.899 81.68 214.23 84.6475C214.478 85.1517 214.616 85.7024 214.636 86.2636C214.656 86.8248 214.557 87.3839 214.347 87.9044C213.238 90.6006 209.186 92.1699 205.61 93.5546C205.017 93.7842 204.441 94.0062 203.901 94.2275C196.109 97.4007 195.239 101.039 194.035 106.074C193.767 107.197 193.489 108.358 193.116 109.578C192.371 111.904 191.057 114.008 189.295 115.699L175.701 147.556C175.649 147.678 175.574 147.788 175.481 147.882L170.183 153.203C170.14 153.246 170.093 153.286 170.044 153.321C161.601 159.243 151.813 162.965 141.568 164.148C141.528 164.153 141.488 164.155 141.447 164.155Z" fill="#282828"/>
<path d="M178.053 103.527C181.371 99.061 181.171 92.8821 182.876 86.7935C185.232 78.3603 185.96 72.7525 184.497 71.2833C181.138 67.9399 177.524 81.1934 171.094 91.2194" fill="white"/>
<path d="M178.051 104.571C177.858 104.571 177.668 104.517 177.504 104.416C177.34 104.314 177.207 104.169 177.12 103.997C177.033 103.824 176.996 103.631 177.013 103.439C177.03 103.246 177.1 103.062 177.215 102.907C179.275 100.134 179.906 96.519 180.573 92.6913C180.902 90.6117 181.335 88.55 181.871 86.5142C185.276 74.3342 184.04 72.3054 183.758 72.0205C183.514 71.7773 183.397 71.7968 183.36 71.8034C182.116 72.0149 179.93 76.528 178.002 80.5128C176.276 84.0789 174.32 88.1209 171.97 91.7839C171.821 92.0166 171.586 92.1805 171.316 92.2395C171.046 92.2985 170.763 92.2479 170.53 92.0987C170.298 91.9494 170.134 91.7139 170.075 91.4439C170.016 91.1738 170.066 90.8914 170.216 90.6587C172.498 87.1002 174.426 83.1179 176.126 79.6046C178.885 73.9069 180.709 70.14 183.01 69.7485C183.418 69.6858 183.834 69.726 184.222 69.8656C184.61 70.0051 184.957 70.2396 185.231 70.5475C186.42 71.7415 187.338 74.6962 183.878 87.0766C183.362 89.0462 182.944 91.0405 182.628 93.0519C181.916 97.1304 181.244 100.982 178.889 104.153C178.792 104.283 178.665 104.389 178.52 104.462C178.374 104.534 178.213 104.572 178.051 104.571Z" fill="#282828"/>
<path d="M113.46 75.2456C113.47 75.3891 113.451 75.5331 113.403 75.6687C113.355 75.8043 113.28 75.9287 113.182 76.0342C113.085 76.1393 112.968 76.2232 112.837 76.2806C112.706 76.338 112.565 76.3676 112.422 76.3677H64.371C64.2275 76.3678 64.0855 76.3381 63.954 76.2808C63.8225 76.2234 63.7043 76.1394 63.6067 76.0342C63.5089 75.9302 63.4337 75.8071 63.3859 75.6725C63.338 75.538 63.3186 75.395 63.3288 75.2526C63.4293 73.8365 63.6583 72.4326 64.0132 71.058C64.071 70.834 64.2017 70.6356 64.3848 70.4941C64.5678 70.3526 64.7927 70.276 65.0241 70.2764H111.723C111.951 70.2768 112.172 70.3513 112.353 70.4886C112.534 70.6258 112.665 70.8185 112.727 71.0372C113.106 72.4131 113.352 73.8225 113.46 75.2456Z" fill="#282828"/>
<path d="M113.66 58.8175V71.324C113.659 71.6002 113.549 71.8648 113.353 72.0601C113.158 72.2554 112.894 72.3654 112.617 72.3662H70.7799C70.7217 72.3641 70.6637 72.3583 70.6062 72.3489H64.1691C63.8927 72.3489 63.6276 72.2391 63.4322 72.0436C63.2368 71.8482 63.127 71.5831 63.127 71.3067V58.8453C63.1262 54.8111 64.7262 50.9414 67.5756 48.0857C70.425 45.23 74.2911 43.6217 78.3251 43.6138H98.4562C102.487 43.6178 106.352 45.2209 109.202 48.0713C112.052 50.9217 113.655 54.7864 113.66 58.8175Z" fill="#282828"/>
<path d="M70.7804 74.0418C70.504 74.0418 70.239 73.932 70.0435 73.7365C69.8481 73.5411 69.7383 73.276 69.7383 72.9996V58.8161C69.7428 54.7856 71.3458 50.9214 74.1957 48.0714C77.0456 45.2214 80.9096 43.6183 84.9399 43.6138C85.2163 43.6138 85.4814 43.7236 85.6769 43.919C85.8723 44.1145 85.9821 44.3796 85.9821 44.656C85.9821 44.9324 85.8723 45.1975 85.6769 45.3929C85.4814 45.5884 85.2163 45.6982 84.9399 45.6982C81.4621 45.7019 78.1278 47.0851 75.6686 49.5444C73.2095 52.0037 71.8263 55.3382 71.8226 58.8161V72.9996C71.8226 73.276 71.7128 73.5411 71.5174 73.7365C71.3219 73.932 71.0568 74.0418 70.7804 74.0418Z" fill="#282828"/>
<path d="M111.703 82.9976L111.773 75.1436H65.2228L65.3218 83.7404C63.9584 82.6425 62.3275 81.9273 60.5964 81.6681C58.8653 81.4089 57.0964 81.6152 55.4714 82.2656C53.8463 82.916 52.4236 83.9872 51.3494 85.3693C50.2751 86.7513 49.588 88.3943 49.3585 90.1297C49.1291 91.865 49.3656 93.6302 50.0438 95.244C50.722 96.8577 51.8174 98.2619 53.2176 99.3123C54.6177 100.363 56.2722 101.022 58.0112 101.221C59.7502 101.421 61.5109 101.154 63.1127 100.448C63.3365 104.018 64.3387 107.495 66.0491 110.636C67.7594 113.778 70.1364 116.506 73.0133 118.631C73.0133 118.631 74.9805 119.986 76.0383 120.552L76.2057 131.127C77.319 133.363 79.0188 135.255 81.1236 136.6C83.2284 137.945 85.659 138.694 88.156 138.765C90.6529 138.836 93.1224 138.228 95.3005 137.005C97.4787 135.782 99.2837 133.99 100.523 131.821L100.355 119.888C103.788 117.804 106.657 114.909 108.71 111.458C110.763 108.007 111.938 104.105 112.132 100.093C113.652 100.918 115.363 101.328 117.092 101.283C118.821 101.238 120.508 100.738 121.983 99.8349C123.459 98.9317 124.67 97.6563 125.497 96.1368C126.324 94.6172 126.736 92.907 126.693 91.1777C126.65 89.4484 126.153 87.7608 125.252 86.2843C124.351 84.8078 123.077 83.5943 121.559 82.7656C120.04 81.9368 118.331 81.522 116.601 81.5628C114.872 81.6035 113.184 82.0983 111.706 82.9976" fill="white"/>
<path d="M88.5476 139.814C88.4809 139.814 88.4149 139.814 88.3479 139.814C85.6238 139.778 82.9623 138.992 80.6556 137.543C78.3489 136.093 76.4863 134.036 75.2722 131.597C75.2017 131.457 75.1638 131.302 75.1614 131.145L75.0033 121.165C73.907 120.514 72.4903 119.54 72.4205 119.492C72.4104 119.485 72.4004 119.478 72.3906 119.471C69.5788 117.395 67.223 114.763 65.4692 111.74C63.7154 108.717 62.601 105.365 62.1948 101.894C60.4788 102.396 58.6657 102.468 56.9152 102.104C55.1647 101.74 53.5305 100.952 52.1564 99.8075C50.7824 98.6635 49.7107 97.1992 49.0357 95.5436C48.3606 93.8879 48.103 92.0917 48.2854 90.3131C48.4679 88.5344 49.0848 86.8279 50.0819 85.3438C51.079 83.8597 52.4257 82.6435 54.0034 81.8023C55.581 80.9611 57.3413 80.5208 59.1292 80.52C60.9171 80.5192 62.6778 80.958 64.2562 81.7978L64.1798 75.1579C64.1782 75.02 64.2039 74.8832 64.2556 74.7553C64.3073 74.6275 64.3838 74.5111 64.4807 74.4131C64.5776 74.315 64.6931 74.2371 64.8203 74.184C64.9475 74.1309 65.0841 74.1035 65.2219 74.1035H111.772C111.909 74.1035 112.046 74.1308 112.173 74.1837C112.3 74.2366 112.415 74.3142 112.512 74.412C112.609 74.5097 112.685 74.6257 112.737 74.7531C112.789 74.8806 112.815 75.0171 112.814 75.1548L112.76 81.3073C114.403 80.6468 116.182 80.3962 117.943 80.5771C119.704 80.7581 121.395 81.3651 122.869 82.3459C124.343 83.3266 125.556 84.6515 126.403 86.206C127.25 87.7606 127.706 89.4981 127.732 91.2684C127.757 93.0388 127.351 94.7886 126.549 96.3669C125.747 97.9452 124.572 99.3043 123.127 100.327C121.682 101.35 120.009 102.005 118.254 102.236C116.499 102.468 114.714 102.268 113.053 101.655C112.643 105.463 111.384 109.129 109.367 112.384C107.351 115.639 104.629 118.4 101.403 120.463L101.562 131.809C101.565 131.996 101.517 132.181 101.424 132.344C100.122 134.609 98.2467 136.493 95.9865 137.804C93.7262 139.115 91.1607 139.809 88.5476 139.814ZM77.2419 130.868C78.288 132.878 79.8511 134.573 81.7702 135.778C83.6893 136.984 85.895 137.655 88.16 137.724C90.425 137.793 92.6674 137.257 94.6562 136.17C96.6451 135.084 98.3083 133.487 99.4747 131.545L99.3114 119.903C99.3088 119.722 99.3536 119.543 99.4414 119.384C99.5291 119.226 99.6567 119.093 99.8116 118.998C103.099 117.004 105.847 114.232 107.813 110.928C109.779 107.623 110.904 103.886 111.088 100.044C111.097 99.8682 111.15 99.6969 111.242 99.5468C111.335 99.3966 111.464 99.2724 111.618 99.1859C111.772 99.0994 111.945 99.0533 112.122 99.0521C112.298 99.0508 112.472 99.0944 112.627 99.1787C113.987 99.9158 115.516 100.283 117.062 100.242C118.608 100.202 120.116 99.7553 121.435 98.948C122.754 98.1407 123.838 97.0007 124.578 95.6425C125.317 94.2842 125.687 92.7554 125.649 91.2092C125.611 89.6631 125.168 88.1541 124.363 86.8335C123.558 85.5128 122.42 84.427 121.063 83.685C119.706 82.9429 118.178 82.5706 116.632 82.6055C115.086 82.6404 113.576 83.0811 112.254 83.8836C112.196 83.9204 112.133 83.9511 112.068 83.9753C111.851 84.0564 111.614 84.0629 111.392 83.9937C111.171 83.9245 110.98 83.7836 110.847 83.5932C110.721 83.412 110.656 83.1952 110.662 82.9745L110.721 76.1876H66.2777L66.3645 83.7301C66.3669 83.9278 66.3129 84.1221 66.209 84.2903C66.1051 84.4585 65.9555 84.5936 65.7776 84.68C65.5998 84.7664 65.401 84.8003 65.2046 84.778C65.0081 84.7556 64.8221 84.6779 64.6682 84.5537C63.1049 83.2847 61.1506 82.5958 59.1371 82.6041C57.8247 82.6042 56.5288 82.8971 55.344 83.4616C54.1591 84.0261 53.1152 84.8478 52.2882 85.867C51.4613 86.8862 50.8722 88.0771 50.564 89.3529C50.2557 90.6286 50.236 91.9571 50.5063 93.2415C50.7767 94.5258 51.3302 95.7336 52.1265 96.7769C52.9229 97.8201 53.942 98.6725 55.1096 99.2719C56.2772 99.8712 57.5638 100.202 58.8757 100.241C60.1875 100.28 61.4915 100.026 62.6926 99.4969C62.8462 99.4295 63.0137 99.4002 63.181 99.4113C63.3483 99.4225 63.5104 99.4739 63.6537 99.5611C63.7969 99.6483 63.9169 99.7688 64.0036 99.9124C64.0903 100.056 64.1411 100.218 64.1516 100.386C64.3644 103.801 65.3219 107.128 66.9569 110.134C68.592 113.139 70.8651 115.751 73.6166 117.785C73.7965 117.909 75.5803 119.128 76.5284 119.636C76.6922 119.723 76.8295 119.853 76.9262 120.012C77.0228 120.171 77.0752 120.353 77.0779 120.539L77.2419 130.868Z" fill="#282828"/>
<path d="M123.2 75.2018C123.171 75.457 123.049 75.6926 122.858 75.8637C122.666 76.0348 122.418 76.1293 122.161 76.1293H122.158L70.4492 75.9383C70.3567 75.9416 70.2642 75.9311 70.1748 75.907C70.0451 75.8725 69.9227 75.8148 69.8135 75.7368C69.6646 75.626 69.5482 75.4772 69.4765 75.306C69.4386 75.2221 69.4129 75.1332 69.4001 75.042C69.38 74.8918 69.3919 74.7391 69.4349 74.5938C69.4686 74.4876 69.5177 74.3869 69.5808 74.295C69.6893 74.1443 69.8354 74.0245 70.0046 73.9476C70.0773 73.9161 70.1529 73.8916 70.2304 73.8747C78.0987 72.1516 88.8642 69.7892 99.1191 69.9768C105.945 70.0984 111.823 71.5297 117.506 72.9159C119.108 73.3084 120.765 73.7114 122.387 74.0692C122.638 74.1251 122.86 74.2714 123.01 74.4803C123.16 74.6892 123.227 74.9461 123.2 75.2018Z" fill="#282828"/>
<path d="M90.623 187.266L162.771 150.356C166.566 148.415 170.735 147.319 174.994 147.142C179.252 146.965 183.498 147.713 187.441 149.333C191.383 150.953 194.928 153.407 197.832 156.527C200.735 159.647 202.93 163.358 204.263 167.407L227.364 255.72L170.362 259.507L165.352 241.546L163.126 233.564L158.964 218.642L126.682 240.98C118.741 246.3 109.399 249.14 99.8417 249.14L96.0041 248.897" fill="white"/>
<path d="M170.362 260.551C170.135 260.55 169.913 260.476 169.732 260.338C169.551 260.201 169.42 260.007 169.359 259.788L158.354 220.333L127.276 241.84C119.165 247.288 109.614 250.193 99.8428 250.184C99.8206 250.184 99.7987 250.184 99.7765 250.182L95.9389 249.939C95.8023 249.93 95.6688 249.895 95.5459 249.834C95.423 249.774 95.3133 249.69 95.2228 249.587C95.1324 249.485 95.0631 249.365 95.0188 249.236C94.9746 249.106 94.9563 248.969 94.965 248.832C94.9737 248.696 95.0092 248.562 95.0695 248.439C95.1298 248.317 95.2137 248.207 95.3164 248.116C95.4191 248.026 95.5387 247.957 95.6682 247.912C95.7977 247.868 95.9347 247.85 96.0712 247.858L99.8755 248.102C109.217 248.105 118.347 245.326 126.103 240.119L158.371 217.786C158.507 217.691 158.665 217.631 158.83 217.609C158.994 217.588 159.162 217.606 159.319 217.662C159.475 217.719 159.616 217.812 159.729 217.934C159.842 218.056 159.924 218.203 159.969 218.363L171.139 258.412L226.038 254.766L203.264 167.704C201.974 163.802 199.855 160.226 197.053 157.22C194.251 154.215 190.832 151.851 187.03 150.291C183.228 148.732 179.134 148.013 175.029 148.185C170.923 148.356 166.903 149.414 163.245 151.286L91.0987 188.196C90.8527 188.322 90.5666 188.345 90.3036 188.26C90.0406 188.175 89.8222 187.989 89.6963 187.742C89.5705 187.496 89.5475 187.21 89.6326 186.947C89.7176 186.684 89.9036 186.466 90.1497 186.34L162.296 149.43C166.225 147.42 170.542 146.285 174.95 146.102C179.359 145.918 183.756 146.692 187.837 148.369C191.919 150.046 195.589 152.587 198.595 155.817C201.602 159.048 203.873 162.89 205.254 167.082C205.261 167.102 205.267 167.123 205.272 167.144L228.374 255.457C228.412 255.606 228.418 255.761 228.39 255.912C228.362 256.062 228.301 256.205 228.211 256.33C228.122 256.454 228.006 256.557 227.872 256.632C227.738 256.706 227.589 256.75 227.436 256.761L170.433 260.547C170.408 260.55 170.385 260.551 170.362 260.551Z" fill="#282828"/>
<path d="M93.8007 215.173L106.182 284.789L48.0391 295.131L33.5951 213.929C32.6839 208.807 33.1422 203.535 34.9235 198.646C36.7049 193.758 39.746 189.427 43.7391 186.092C47.7322 182.758 52.5354 180.537 57.6627 179.655C62.7899 178.773 68.059 179.262 72.9367 181.072L97.6116 190.165" fill="white"/>
<path d="M48.0377 296.175C47.7931 296.174 47.5564 296.088 47.3689 295.931C47.1815 295.774 47.0554 295.556 47.0126 295.315L32.5682 214.113C31.6249 208.81 32.0994 203.352 33.9436 198.291C35.7878 193.23 38.9362 188.746 43.0702 185.294C47.2043 181.841 52.1771 179.542 57.4852 178.629C62.7934 177.716 68.2485 178.222 73.2983 180.096L97.9711 189.188C98.1004 189.235 98.2192 189.306 98.3206 189.399C98.4221 189.492 98.5042 189.604 98.5622 189.728C98.6202 189.853 98.653 189.988 98.6587 190.125C98.6644 190.263 98.6429 190.4 98.5954 190.529C98.5479 190.658 98.4753 190.776 98.3819 190.877C98.2885 190.978 98.176 191.059 98.051 191.116C97.926 191.173 97.791 191.205 97.6536 191.21C97.5162 191.215 97.3793 191.192 97.2506 191.144L72.575 182.053C67.8695 180.307 62.7861 179.835 57.8396 180.685C52.8931 181.535 48.2591 183.678 44.4066 186.895C40.5542 190.112 37.6202 194.29 35.9016 199.006C34.183 203.722 33.7408 208.808 34.6199 213.75L48.8815 293.925L104.972 283.946L92.7732 215.356C92.7248 215.084 92.7865 214.804 92.9448 214.577C93.103 214.351 93.3448 214.196 93.617 214.148C93.8891 214.099 94.1694 214.161 94.396 214.319C94.6227 214.478 94.7772 214.72 94.8255 214.992L107.206 284.608C107.23 284.743 107.228 284.881 107.198 285.014C107.169 285.148 107.113 285.275 107.035 285.387C106.956 285.499 106.857 285.595 106.741 285.669C106.626 285.742 106.497 285.792 106.363 285.816L48.2204 296.159C48.1601 296.169 48.099 296.175 48.0377 296.175Z" fill="#282828"/>
<path d="M76.0899 90.5893C77.4675 90.5893 78.5842 89.4725 78.5842 88.0949C78.5842 86.7173 77.4675 85.6006 76.0899 85.6006C74.7124 85.6006 73.5957 86.7173 73.5957 88.0949C73.5957 89.4725 74.7124 90.5893 76.0899 90.5893Z" fill="#282828"/>
<path d="M78.2428 201.745L82.3163 201.242C84.0919 202.272 86.1761 202.636 88.1959 202.27C94.5006 200.923 101.226 195.666 108.754 202.172C112.152 205.109 116.771 210.061 119.509 206.53C121.412 204.091 116.25 198.059 112.606 193.467C120.166 197.073 130.089 201.791 132.039 198.302C133.99 194.813 127.126 190.689 117.283 186.088C129.028 189.149 134.737 192.449 136.234 188.886C138.704 183.015 115.077 175.271 106.113 174.873C99.2625 174.571 95.1433 174.601 93.5717 174.633C93.5717 174.633 88.2445 175.242 88.0461 175.236L33.1767 173.475C32.2944 173.446 31.4113 173.48 30.5338 173.577C26.5886 174.066 22.9421 175.931 20.2349 178.842C17.5277 181.754 15.933 185.526 15.7309 189.496C15.5288 193.467 16.7323 197.381 19.1299 200.552C21.5275 203.723 24.9659 205.948 28.8409 206.835" fill="white"/>
<path d="M22.2014 205.521C19.8699 204.105 17.8905 202.178 16.4125 199.886C14.9345 197.593 13.9966 194.995 13.6695 192.286C13.3915 189.946 13.5772 187.574 14.2159 185.305C14.8547 183.037 15.934 180.916 17.3923 179.065C18.8505 177.213 20.6591 175.667 22.7149 174.515C24.7706 173.362 27.0332 172.626 29.3735 172.348C30.3051 172.25 31.2425 172.218 32.1786 172.253L86.9984 174.291C87.4192 174.262 90.517 173.93 92.4164 173.721C92.4484 173.718 92.4808 173.716 92.5133 173.715C93.9775 173.692 98.1362 173.677 105.12 174.019C112.915 174.404 131.972 180.271 135.663 186.17C136.594 187.658 136.403 188.876 136.078 189.634C134.758 192.734 131.461 192.046 126.097 190.389C129.667 192.615 131.512 194.461 132.076 196.24C132.237 196.715 132.294 197.219 132.244 197.718C132.194 198.217 132.037 198.699 131.785 199.132C129.709 202.803 122.434 200.01 115.048 196.552C118.361 200.854 121.043 204.996 119.124 207.43C118.8 207.878 118.385 208.252 117.905 208.526C117.426 208.801 116.893 208.97 116.343 209.023C113.633 209.254 110.709 206.605 108.129 204.268C107.702 203.881 107.286 203.504 106.887 203.156C101.632 198.569 96.9261 200.216 91.941 201.959C90.4018 202.536 88.8271 203.013 87.2265 203.387C85.0766 203.78 82.8569 203.426 80.9364 202.383L77.1861 202.827C77.0501 202.843 76.9124 202.832 76.7806 202.795C76.6488 202.758 76.5257 202.695 76.4181 202.611C76.3106 202.526 76.2208 202.421 76.1539 202.302C76.0869 202.182 76.0442 202.051 76.028 201.915C76.0119 201.779 76.0227 201.641 76.0598 201.509C76.0969 201.378 76.1596 201.254 76.2443 201.147C76.329 201.039 76.434 200.95 76.5535 200.883C76.6729 200.816 76.8043 200.773 76.9402 200.757L81.0147 200.273C81.2322 200.247 81.4523 200.291 81.6438 200.397C83.1952 201.316 85.0233 201.652 86.8 201.344C88.3104 200.989 89.7964 200.536 91.2489 199.991C96.3279 198.214 102.084 196.2 108.254 201.585C108.662 201.941 109.087 202.326 109.524 202.723C111.676 204.673 114.355 207.099 116.161 206.945C116.427 206.918 116.684 206.831 116.912 206.692C117.14 206.553 117.334 206.365 117.481 206.141C118.734 204.551 114.236 198.868 111.548 195.472C111.241 195.082 110.937 194.701 110.645 194.329C110.499 194.144 110.419 193.914 110.42 193.678C110.421 193.442 110.502 193.213 110.65 193.029C110.798 192.845 111.004 192.716 111.235 192.665C111.465 192.613 111.707 192.642 111.919 192.745C115.503 194.477 119.963 196.633 123.587 197.832C127.136 199.007 129.401 199.103 129.967 198.104C130.078 197.92 130.145 197.713 130.166 197.499C130.186 197.285 130.159 197.069 130.085 196.867C129.15 193.915 121.446 189.976 115.733 187.27C115.501 187.157 115.319 186.962 115.222 186.722C115.126 186.482 115.122 186.215 115.211 185.973C115.3 185.73 115.477 185.53 115.706 185.41C115.935 185.29 116.2 185.259 116.45 185.324C119.704 186.19 122.438 187.052 124.85 187.814C130.802 189.693 133.462 190.455 134.16 188.817C134.282 188.532 134.387 188.061 133.895 187.274C130.837 182.386 112.915 176.49 105.018 176.1C98.171 175.763 94.0802 175.775 92.5943 175.797C87.2353 176.382 87.0516 176.376 86.9629 176.372L32.1031 174.334C31.2703 174.303 30.4363 174.331 29.6074 174.417C25.4329 174.917 21.6275 177.054 19.0275 180.358C16.4275 183.662 15.2456 187.863 15.7416 192.038C16.1317 195.271 17.5043 198.306 19.6742 200.734C21.844 203.162 24.7067 204.866 27.8756 205.615C28.0123 205.643 28.142 205.698 28.2571 205.777C28.3722 205.856 28.4703 205.957 28.5456 206.074C28.6209 206.191 28.6718 206.323 28.6955 206.46C28.7191 206.598 28.7149 206.738 28.6831 206.874C28.6513 207.01 28.5926 207.138 28.5104 207.251C28.4282 207.364 28.3243 207.459 28.2047 207.53C28.0851 207.602 27.9524 207.649 27.8143 207.669C27.6762 207.688 27.5356 207.68 27.4008 207.644C25.5664 207.216 23.8115 206.499 22.2014 205.521Z" fill="#282828"/>
<path d="M99.8106 90.2426C101.188 90.2426 102.305 89.1259 102.305 87.7483C102.305 86.3707 101.188 85.2539 99.8106 85.2539C98.4331 85.2539 97.3164 86.3707 97.3164 87.7483C97.3164 89.1259 98.4331 90.2426 99.8106 90.2426Z" fill="#282828"/>
<path d="M86.2051 95.2253C85.9622 95.2255 85.7268 95.1408 85.5396 94.9858C85.3525 94.8308 85.2254 94.6154 85.1802 94.3766C85.1351 94.1378 85.1748 93.8908 85.2925 93.6783C85.4102 93.4657 85.5985 93.3009 85.8248 93.2124L90.7781 91.2729L87.3088 85.8096C87.2323 85.6941 87.1796 85.5645 87.1538 85.4284C87.1279 85.2923 87.1295 85.1524 87.1584 85.0168C87.1873 84.8813 87.2429 84.753 87.322 84.6392C87.401 84.5254 87.502 84.4286 87.619 84.3543C87.7359 84.28 87.8665 84.2298 88.0031 84.2066C88.1397 84.1834 88.2795 84.1877 88.4144 84.2191C88.5493 84.2506 88.6766 84.3087 88.7888 84.3899C88.9011 84.4712 88.9959 84.574 89.068 84.6924L93.2158 91.2235C93.2981 91.3533 93.3507 91.4997 93.3698 91.6522C93.3889 91.8048 93.374 91.9596 93.3262 92.1057C93.2784 92.2518 93.1989 92.3855 93.0934 92.4973C92.9879 92.609 92.859 92.696 92.7159 92.7521L86.5848 95.153C86.4639 95.2005 86.3351 95.225 86.2051 95.2253Z" fill="#282828"/>
<path d="M84.7191 100.439C84.5288 100.439 84.3421 100.491 84.1794 100.59C84.0166 100.689 83.884 100.83 83.796 100.999C83.7079 101.168 83.6677 101.357 83.6798 101.547C83.6919 101.737 83.7558 101.92 83.8646 102.077C85.0274 103.742 86.5674 105.109 88.359 106.067C90.1506 107.024 92.1431 107.544 94.174 107.585C94.4504 107.59 94.7175 107.485 94.9166 107.293C95.1157 107.101 95.2304 106.838 95.2356 106.562C95.2408 106.286 95.1359 106.018 94.9441 105.819C94.7523 105.62 94.4893 105.506 94.2129 105.5C92.5114 105.466 90.842 105.03 89.341 104.228C87.8399 103.426 86.5497 102.281 85.5755 100.885C85.4793 100.747 85.3512 100.635 85.2021 100.557C85.053 100.479 84.8873 100.439 84.7191 100.439Z" fill="#282828"/>
<path d="M92.5307 82.5431C92.364 82.4003 92.2465 82.2086 92.1952 81.9951C92.1438 81.7817 92.1612 81.5575 92.2448 81.3545C92.3283 81.1516 92.4739 80.9801 92.6606 80.8647C92.8474 80.7493 93.0658 80.6959 93.2847 80.7119L101.496 81.3143C101.633 81.3232 101.767 81.3593 101.89 81.4203C102.014 81.4813 102.124 81.5662 102.214 81.67C102.305 81.7737 102.373 81.8944 102.417 82.0249C102.46 82.1555 102.478 82.2934 102.468 82.4306C102.457 82.5678 102.42 82.7017 102.358 82.8245C102.296 82.9473 102.21 83.0566 102.106 83.1461C102.001 83.2356 101.88 83.3035 101.749 83.3459C101.618 83.3882 101.48 83.4043 101.343 83.3931L93.1324 82.7908C92.9104 82.775 92.6995 82.6881 92.5307 82.5431Z" fill="#282828"/>
<path d="M82.6833 82.5649C82.514 82.7092 82.3027 82.7953 82.0806 82.8102L73.8673 83.3792C73.5915 83.3982 73.3195 83.307 73.111 83.1254C72.9025 82.9439 72.7747 82.687 72.7556 82.4113C72.7365 82.1355 72.8278 81.8635 73.0093 81.655C73.1908 81.4465 73.4477 81.3187 73.7234 81.2996L81.9365 80.7309C82.1555 80.7157 82.3737 80.7701 82.5599 80.8862C82.7462 81.0023 82.891 81.1743 82.9738 81.3776C83.0565 81.5809 83.073 81.8051 83.0209 82.0183C82.9687 82.2315 82.8506 82.4228 82.6833 82.5649Z" fill="#282828"/>
<path d="M89.4427 16.4416C89.1899 16.4413 88.9464 16.3448 88.7609 16.1712C88.5754 15.9976 88.4615 15.7598 88.442 15.5051L87.8726 8.06225C87.8616 7.92891 87.8768 7.79469 87.9173 7.66731C87.9578 7.53993 88.0229 7.4219 88.1088 7.32001C88.1946 7.21812 88.2995 7.13438 88.4176 7.07361C88.5356 7.01284 88.6643 6.97624 88.7963 6.96592C88.9284 6.95559 89.0612 6.97175 89.187 7.01345C89.3129 7.05515 89.4293 7.12158 89.5297 7.20891C89.63 7.29624 89.7123 7.40276 89.7718 7.52232C89.8312 7.64189 89.8667 7.77215 89.8761 7.90561L90.4454 15.3485C90.4556 15.4814 90.4398 15.615 90.3989 15.7418C90.3579 15.8685 90.2927 15.9858 90.2069 16.0871C90.121 16.1884 90.0163 16.2715 89.8986 16.3319C89.7809 16.3923 89.6526 16.4286 89.5211 16.4389C89.4939 16.4416 89.4675 16.4416 89.4427 16.4416Z" fill="#282828"/>
<path d="M116.874 25.3744C116.703 25.3744 116.535 25.3303 116.385 25.2463C116.236 25.1623 116.11 25.0412 116.02 24.8945C115.93 24.7478 115.878 24.5802 115.87 24.4078C115.862 24.2353 115.898 24.0636 115.974 23.9089L119.256 17.2103C119.374 16.969 119.582 16.7851 119.835 16.6989C120.087 16.6127 120.363 16.6314 120.602 16.7509C120.841 16.8703 121.023 17.0807 121.108 17.3357C121.194 17.5908 121.175 17.8696 121.057 18.1109L117.775 24.8095C117.692 24.9792 117.563 25.122 117.404 25.2219C117.245 25.3217 117.061 25.3746 116.874 25.3744Z" fill="#282828"/>
<path d="M135.894 47.2305C135.677 47.2306 135.466 47.16 135.293 47.0291C135.119 46.8981 134.992 46.714 134.93 46.5041C134.869 46.2942 134.876 46.0698 134.951 45.8644C135.026 45.659 135.164 45.4836 135.346 45.3643L141.542 41.3046C141.653 41.2308 141.777 41.1799 141.907 41.1547C142.037 41.1296 142.171 41.1308 142.301 41.1582C142.431 41.1855 142.554 41.2386 142.663 41.3143C142.773 41.39 142.866 41.4868 142.938 41.5992C143.011 41.7115 143.06 41.8372 143.084 41.969C143.108 42.1007 143.106 42.236 143.077 42.3669C143.049 42.4978 142.996 42.6217 142.92 42.7317C142.844 42.8416 142.748 42.9353 142.636 43.0073L136.44 47.067C136.278 47.1737 136.088 47.2305 135.894 47.2305Z" fill="#282828"/>
</g>
</svg>
